<?xml version="1.0" encoding="utf-8"?>
<!-- Generator: Adobe Illustrator 24.0.2, SVG Export Plug-In . SVG Version: 6.00 Build 0)  -->
<svg version="1.1" id="Layer_1" xmlns="http://www.w3.org/2000/svg" xmlns:xlink="http://www.w3.org/1999/xlink" x="0px" y="0px"
	 viewBox="0 0 382.98 104.26" style="enable-background:new 0 0 382.98 104.26;" xml:space="preserve">
<style type="text/css">
	.st0{fill:#353E60;}
	.st1{fill:#F2685C;}
	.st2{fill:#C7C8CA;}
	.st3{fill:#D2232A;}
	.st4{fill:#FFFFFF;}
</style>
<g>
	<path class="st0" d="M183.92,38.51l-5.12,15.09c-0.51,2.02-0.76,3.19-0.76,3.5h-0.66c0-0.44-0.22-1.61-0.66-3.5l-5.21-15.09h-14.78
		l16.11,39.79h9.76l16.2-39.79H183.92z"/>
	<path class="st0" d="M105.97,77.94V55.9c0-1.71,0.41-3.09,1.23-4.16c0.82-1.07,2.06-1.6,3.7-1.6c3.29,0,4.94,2.07,4.94,6.22v21.58
		h13.17V55.26c0-5.12-1.27-9.19-3.79-12.21c-2.53-3.02-5.87-4.53-10.01-4.53c-4.27,0-7.26,1.49-8.96,4.48h-0.28V22.62H92.53v55.32
		H105.97z M67.47,49.41c1.83,0,3.29,0.89,4.39,2.65c1.1,1.77,1.65,4.02,1.65,6.77c0,2.74-0.55,4.97-1.65,6.68
		c-1.1,1.71-2.56,2.56-4.39,2.56c-1.89,0-3.35-0.82-4.39-2.47c-1.04-1.65-1.55-3.9-1.55-6.77c0-2.86,0.52-5.15,1.55-6.86
		C64.12,50.26,65.58,49.41,67.47,49.41 M63.27,75.56c0.43,0.73,1.33,1.46,2.7,2.19c1.37,0.73,3,1.1,4.89,1.1
		c4.63,0,8.44-1.87,11.43-5.62c2.99-3.75,4.48-8.61,4.48-14.58c0-6.09-1.53-10.96-4.57-14.58c-3.05-3.63-6.98-5.44-11.79-5.44
		c-1.46,0-2.85,0.21-4.16,0.64c-1.31,0.43-2.33,0.91-3.06,1.46s-1.4,1.18-2.01,1.87c-0.61,0.7-0.99,1.19-1.14,1.46
		s-0.26,0.5-0.32,0.69h-0.46l-2.01-5.21h-8.32V92.2h13.17V74.46h0.55L63.27,75.56z M39.91,32.58c1.43-1.34,2.15-3.05,2.15-5.12
		c0-2.07-0.72-3.79-2.15-5.17c-1.43-1.37-3.22-2.06-5.35-2.06c-2.07,0-3.81,0.69-5.21,2.06c-1.4,1.37-2.1,3.09-2.1,5.17
		c0,2.07,0.7,3.78,2.1,5.12c1.4,1.34,3.14,2.01,5.21,2.01C36.69,34.6,38.48,33.93,39.91,32.58 M29.35,92.2
		c3.6,0,6.48-1.19,8.64-3.57c2.16-2.38,3.25-5.52,3.25-9.42V39.53H27.98v38.95c0,1.89-0.73,2.83-2.19,2.83h-2.38V92.2H29.35z"/>
	<path class="st1" d="M235.74,77.94c3.87,0,7.01-3.14,7.01-7.01c0-3.87-3.14-7.01-7.01-7.01c-3.87,0-7.01,3.14-7.01,7.01
		C228.73,74.8,231.87,77.94,235.74,77.94"/>
	<path class="st2" d="M213.76,55.55c3.87,0,7.01-3.14,7.01-7.01c0-3.87-3.14-7.01-7.01-7.01c-3.87,0-7.01,3.14-7.01,7.01
		C206.75,52.41,209.89,55.55,213.76,55.55"/>
	<path class="st2" d="M213.76,33.17c3.87,0,7.01-3.14,7.01-7.01c0-3.87-3.14-7.01-7.01-7.01c-3.87,0-7.01,3.14-7.01,7.01
		C206.75,30.03,209.89,33.17,213.76,33.17"/>
	<path class="st3" d="M235.74,55.55c3.87,0,7.01-3.14,7.01-7.01c0-3.87-3.14-7.01-7.01-7.01c-3.87,0-7.01,3.14-7.01,7.01
		C228.73,52.41,231.87,55.55,235.74,55.55"/>
	<path class="st1" d="M257.72,55.55c3.87,0,7.01-3.14,7.01-7.01c0-3.87-3.14-7.01-7.01-7.01c-3.87,0-7.01,3.14-7.01,7.01
		C250.7,52.41,253.84,55.55,257.72,55.55"/>
	<path class="st2" d="M213.76,77.94c3.87,0,7.01-3.14,7.01-7.01c0-3.87-3.14-7.01-7.01-7.01c-3.87,0-7.01,3.14-7.01,7.01
		C206.75,74.8,209.89,77.94,213.76,77.94"/>
	<path class="st2" d="M257.72,77.94c3.87,0,7.01-3.14,7.01-7.01c0-3.87-3.14-7.01-7.01-7.01c-3.87,0-7.01,3.14-7.01,7.01
		C250.7,74.8,253.84,77.94,257.72,77.94"/>
	<path class="st1" d="M235.74,33.17c3.87,0,7.01-3.14,7.01-7.01c0-3.87-3.14-7.01-7.01-7.01c-3.87,0-7.01,3.14-7.01,7.01
		C228.73,30.03,231.87,33.17,235.74,33.17"/>
	<path class="st2" d="M257.72,33.17c3.87,0,7.01-3.14,7.01-7.01c0-3.87-3.14-7.01-7.01-7.01c-3.87,0-7.01,3.14-7.01,7.01
		C250.7,30.03,253.84,33.17,257.72,33.17"/>
	<path class="st0" d="M151.68,48.54c0-1.99-0.44-4.34-2.37-5.76c-1.81-1.33-3.24-2.27-3.24-6.49c0-2.84,0.93-3,2.84-4.46
		c2.13-1.62,2.77-3.76,2.77-5.67c0-3.87-3.14-7.01-7.01-7.01c-3.87,0-7.01,3.14-7.01,7.01c0,1.97,0.75,4.03,2.53,5.47
		c2.64,2.13,3.3,1.7,3.3,4.66c0,3.11-0.87,4.76-3.1,6.07c-2.27,1.62-2.74,3.99-2.74,6.18v23.23c0.43,3.46,3.44,6.17,7.01,6.17
		c3.57,0,6.58-2.71,7.01-6.17V48.54z"/>
	<path class="st2" d="M345.68,49.69h5.5l-2.44,17.33c-0.48,3.44-0.07,6.15,1.25,8.14c1.32,1.99,3.67,2.98,7.05,2.98
		c2.58,0,5.29-0.83,8.14-2.5l-1.61-5.56l-0.56,0.32c-0.38,0.21-0.89,0.43-1.53,0.64c-0.64,0.22-1.26,0.32-1.85,0.32
		c-2.41,0-3.41-1.5-2.97-4.51l2.41-17.17h8.13l0.88-6.2h-8.14l1.45-10.32h-7.89l-1.45,10.32h-5.48L345.68,49.69z M335.37,56.38
		h-13.54c1.5-5.05,4.19-7.57,8.06-7.57C333.81,48.81,335.63,51.33,335.37,56.38 M336.17,69.6c-0.7,0.54-1.76,1.05-3.18,1.53
		c-1.42,0.48-2.89,0.73-4.39,0.73c-2.69,0-4.71-0.86-6.08-2.58c-1.37-1.72-1.92-4.27-1.65-7.66h21.6l0.32-2.09
		c0.75-5,0.08-9.05-2.01-12.17c-2.1-3.12-5.37-4.67-9.83-4.67c-5.11,0-9.35,1.99-12.73,5.96c-3.39,3.98-5.08,8.86-5.08,14.67
		c0,4.46,1.22,8.07,3.67,10.84c2.44,2.77,5.9,4.15,10.35,4.15c2.36,0,4.58-0.38,6.65-1.13c2.07-0.75,3.4-1.34,3.99-1.77
		c0.59-0.43,1.05-0.81,1.37-1.13l-2.02-5.4L336.17,69.6z M289.94,52.03c1.51-1.72,3.37-2.58,5.58-2.58c2.15,0,3.72,0.86,4.69,2.58
		c0.97,1.72,1.27,3.92,0.89,6.61l-2.72,18.69h7.9l2.74-19.42c0.64-4.57,0.01-8.25-1.89-11.04c-1.91-2.79-4.85-4.19-8.82-4.19
		c-4.35,0-8.03,1.88-11.04,5.64h-0.4l-0.4-4.83h-5.08l-4.75,33.85h7.89l2.76-19.66C287.54,55.63,288.43,53.75,289.94,52.03"/>
	<path class="st1" d="M242.75,48.54c0-3.87-2.92-7.01-6.52-7.01h-21.98h-0.97c-3.6,0-6.52,3.14-6.52,7.01s2.92,7.01,6.52,7.01h22.95
		C239.83,55.55,242.75,52.42,242.75,48.54"/>
</g>
<g>
	<path class="st4" d="M217.65,45.07v7.24h-1.75v-7.24H217.65z"/>
	<path class="st4" d="M227.01,45.07v7.24h-1.36l-3.03-4.03v4.03h-1.74v-7.24h1.38l3.01,4.05v-4.05H227.01z"/>
	<path class="st4" d="M233.88,45.07l2.5,7.24h-1.75l-0.45-1.3h-2.44l-0.38,1.3h-1.89l2.36-7.24H233.88z M232.93,47l-0.78,2.63h1.56
		L232.93,47z"/>
</g>
</svg>
