<svg xmlns="http://www.w3.org/2000/svg" width="8.898" height="9.887" viewBox="0 0 8.898 9.887">
    <defs>
        <style>
            .prefix__cls-1{fill:#707070}
        </style>
    </defs>
    <g id="prefix__event" transform="translate(-21.333)">
        <g id="prefix__Group_99" data-name="Group 99" transform="translate(21.333)">
            <g id="prefix__Group_98" data-name="Group 98">
                <path id="prefix__Path_66" d="M29.242.989h-.494V0h-.989v.989H23.8V0h-.989v.989h-.494a.984.984 0 00-.984.989v6.921a.988.988 0 00.989.989h6.921a.988.988 0 00.989-.989V1.977a.988.988 0 00-.99-.988zm0 7.909h-6.92V3.46h6.921z" class="prefix__cls-1" data-name="Path 66" transform="translate(-21.333)"/>
                <path id="prefix__Path_67" d="M119.921 192.524L119.4 192l-2.412 2.412-1.048-1.048-.524.524 1.572 1.572z" class="prefix__cls-1" data-name="Path 67" transform="translate(-113.233 -187.551)"/>
            </g>
        </g>
    </g>
</svg>
