<svg xmlns="http://www.w3.org/2000/svg" width="8.58" height="8.58" viewBox="0 0 8.58 8.58">
    <defs>
        <style>
            .prefix__cls-1{fill:#707070}
        </style>
    </defs>
    <g id="prefix__inbox">
        <g id="prefix__Group_107" data-name="Group 107">
            <g id="prefix__Group_106" data-name="Group 106">
                <path id="prefix__Path_72" d="M8.579 109.552a.384.384 0 00-.069-.183l-1.755-2.535a.39.39 0 00-.321-.168H5.265a.2.2 0 00-.195.2v.39a.2.2 0 00.195.2h.965l1.35 1.95h-.95a.781.781 0 00-.78.78.39.39 0 01-.39.39H3.121a.39.39 0 01-.39-.39.781.781 0 00-.78-.78H1l1.35-1.95h.965a.2.2 0 00.195-.2v-.39a.2.2 0 00-.195-.2H2.146a.39.39 0 00-.321.168l-1.754 2.535a.4.4 0 00-.069.186v2.961a.781.781 0 00.78.78H7.8a.781.781 0 00.78-.78s.002-2.952-.001-2.964z" class="prefix__cls-1" data-name="Path 72" transform="translate(0 -104.716)"/>
                <path id="prefix__Path_73" d="M145.274 3.291l-.274.276a.2.2 0 000 .276l1.308 1.308a.39.39 0 00.551 0l1.308-1.308a.2.2 0 000-.276l-.276-.276a.2.2 0 00-.276 0l-.642.642V.2a.2.2 0 00-.195-.2h-.39a.2.2 0 00-.195.2v3.734l-.642-.642a.2.2 0 00-.277-.001z" class="prefix__cls-1" data-name="Path 73" transform="translate(-142.292)"/>
            </g>
        </g>
    </g>
</svg>
