<svg xmlns="http://www.w3.org/2000/svg" id="prefix__inbox" width="13.259" height="13.259" viewBox="0 0 13.259 13.259">
    <defs>
        <style>
            .prefix__cls-1{fill:#fff}
        </style>
    </defs>
    <g id="prefix__Group_107" data-name="Group 107">
        <g id="prefix__Group_106" data-name="Group 106">
            <path id="prefix__Path_72" d="M13.257 111.125a.594.594 0 00-.107-.282l-2.711-3.917a.6.6 0 00-.5-.26H8.136a.3.3 0 00-.3.3v.6a.3.3 0 00.3.3h1.492l2.086 3.013h-1.469a1.207 1.207 0 00-1.205 1.211.6.6 0 01-.6.6H4.822a.6.6 0 01-.6-.6 1.207 1.207 0 00-1.205-1.205H1.546l2.086-3.013h1.491a.3.3 0 00.3-.3v-.6a.3.3 0 00-.3-.3H3.316a.6.6 0 00-.5.26l-2.707 3.911a.613.613 0 00-.107.288v4.576a1.207 1.207 0 001.205 1.205h10.845a1.207 1.207 0 001.205-1.205s.004-4.562 0-4.582z" class="prefix__cls-1" data-name="Path 72" transform="translate(0 -103.653)"/>
            <path id="prefix__Path_73" d="M145.456 5.086l-.426.426a.3.3 0 000 .426l2.02 2.022a.6.6 0 00.852 0l2.021-2.021a.3.3 0 000-.426l-.426-.426a.3.3 0 00-.426 0l-.992.992V.3a.3.3 0 00-.3-.3h-.6a.3.3 0 00-.3.3v5.779l-.992-.992a.3.3 0 00-.431-.001z" class="prefix__cls-1" data-name="Path 73" transform="translate(-140.847)"/>
        </g>
    </g>
</svg>
