<svg xmlns="http://www.w3.org/2000/svg" width="66.566" height="74" viewBox="0 0 66.566 74">
  <path id="Icon_metro-file-text" data-name="Icon metro-file-text" d="M67.93,18.482a66.113,66.113,0,0,0-6.477-7.205,66.869,66.869,0,0,0-7.407-6.3c-3.832-2.733-5.69-3.049-6.755-3.049H10.442A5.871,5.871,0,0,0,4.5,7.709V70.147a5.871,5.871,0,0,0,5.943,5.781H65.121a5.871,5.871,0,0,0,5.943-5.781V25.053c0-1.036-.325-2.844-3.135-6.571Zm-9.839-3.935a63.679,63.679,0,0,1,5.392,5.881H52.046V9.3A64.238,64.238,0,0,1,58.091,14.547Zm8.219,55.6A1.189,1.189,0,0,1,65.121,71.3H10.442a1.189,1.189,0,0,1-1.189-1.156V7.709a1.189,1.189,0,0,1,1.189-1.156H47.291V22.741a2.346,2.346,0,0,0,2.377,2.313H66.31ZM54.423,62.053H21.14a2.313,2.313,0,1,1,0-4.625H54.423a2.313,2.313,0,1,1,0,4.625Zm0-9.25H21.14a2.313,2.313,0,1,1,0-4.625H54.423a2.313,2.313,0,1,1,0,4.625Zm0-9.25H21.14a2.313,2.313,0,1,1,0-4.625H54.423a2.313,2.313,0,1,1,0,4.625Z" transform="translate(-4.499 -1.928)" fill="#646262"/>
</svg>
