<svg xmlns="http://www.w3.org/2000/svg" id="prefix__user" width="11.867" height="11.867" viewBox="0 0 11.867 11.867">
    <g id="prefix__Group_275" data-name="Group 275">
        <path id="prefix__Path_910" d="M5.934 0a5.934 5.934 0 1 0 5.934 5.934A5.94 5.94 0 0 0 5.934 0zm0 1.731A2.843 2.843 0 1 1 3.09 4.574a2.847 2.847 0 0 1 2.844-2.843zm0 9.148a4.935 4.935 0 0 1-3.952-1.985 9.31 9.31 0 0 1 3.951-.982 9.311 9.311 0 0 1 3.951.982 4.935 4.935 0 0 1-3.95 1.984z" data-name="Path 910" style="fill:#353d5f"/>
    </g>
</svg>
