<svg xmlns="http://www.w3.org/2000/svg" width="66.566" height="72.066" viewBox="0 0 66.566 72.066">
  <path id="Icon_metro-file-zip" data-name="Icon metro-file-zip" d="M67.93,18.05a64.963,64.963,0,0,0-6.477-7.017A66.451,66.451,0,0,0,54.046,4.9c-3.832-2.662-5.69-2.969-6.755-2.969H10.442A5.8,5.8,0,0,0,4.5,7.558V68.364a5.8,5.8,0,0,0,5.943,5.63H65.121a5.8,5.8,0,0,0,5.943-5.63V24.449c0-1.009-.325-2.769-3.135-6.4Zm-9.839-3.832a62.648,62.648,0,0,1,5.392,5.727H52.046V9.11A63.831,63.831,0,0,1,58.091,14.218ZM66.31,68.364a1.174,1.174,0,0,1-1.189,1.126H10.442a1.174,1.174,0,0,1-1.189-1.126V7.558a1.174,1.174,0,0,1,1.189-1.126H47.291V22.2a2.317,2.317,0,0,0,2.377,2.252H66.31ZM18.763,6.432h9.509v4.5H18.763Zm9.509,4.5h9.509v4.5H28.272Zm-9.509,4.5h9.509v4.5H18.763Zm9.509,4.5h9.509v4.5H28.272Zm-9.509,4.5h9.509v4.5H18.763Zm9.509,4.5h9.509v4.5H28.272Zm-9.509,4.5h9.509v4.5H18.763Zm9.509,4.5h9.509v4.5H28.272ZM18.763,61.608a3.486,3.486,0,0,0,3.566,3.378H34.216a3.486,3.486,0,0,0,3.566-3.378V50.347a3.486,3.486,0,0,0-3.566-3.378H28.272v-4.5H18.763V61.608Zm14.264-5.63v4.5H23.518v-4.5Z" transform="translate(-4.499 -1.928)" fill="#646262"/>
</svg>
