<svg xmlns="http://www.w3.org/2000/svg" width="14.824" height="14.825" viewBox="0 0 14.824 14.825">
    <defs>
        <style>
            .prefix__cls-1{fill:#353d5f}
        </style>
    </defs>
    <g id="prefix__logout" transform="translate(-.014)">
        <g id="prefix__Group_277" data-name="Group 277" transform="translate(.014)">
            <g id="prefix__Group_276" data-name="Group 276">
                <path id="prefix__Path_911" d="M304.809 151.574a.625.625 0 0 0-.134-.2l-1.852-1.852a.618.618 0 0 0-.873.873l.8.8h-3.45a.618.618 0 0 0 0 1.235h3.45l-.8.8a.618.618 0 1 0 .873.873l1.852-1.852a.612.612 0 0 0 .134-.2.619.619 0 0 0 0-.477z" class="prefix__cls-1" data-name="Path 911" transform="translate(-290.032 -145.015)"/>
                <path id="prefix__Path_912" d="M10.515 8.648a.618.618 0 0 0-.618.618v3.088H7.426V2.471a.618.618 0 0 0-.44-.592l-2.145-.644H9.9v3.089a.618.618 0 0 0 1.235 0V.618a.618.618 0 0 0-.62-.618H.632a.55.55 0 0 0-.064.012A.61.61 0 0 0 .306.1C.293.112.276.112.263.122S.256.133.251.137a.612.612 0 0 0-.164.2.5.5 0 0 0-.017.047.586.586 0 0 0-.049.144.384.384 0 0 0 0 .054C.022.594.014.605.014.618v12.354a.617.617 0 0 0 .5.605l6.177 1.235a.575.575 0 0 0 .121.012.618.618 0 0 0 .618-.618v-.618h3.088a.618.618 0 0 0 .618-.618V9.265a.618.618 0 0 0-.621-.617z" class="prefix__cls-1" data-name="Path 912" transform="translate(-.014)"/>
            </g>
        </g>
    </g>
</svg>
