<svg xmlns="http://www.w3.org/2000/svg" width="13.333" height="10" viewBox="0 0 13.333 10">
    <path id="prefix__id-card" d="M11.806 0H1.528A1.529 1.529 0 0 0 0 1.528v6.944A1.529 1.529 0 0 0 1.528 10h10.278a1.529 1.529 0 0 0 1.528-1.528V1.528A1.529 1.529 0 0 0 11.806 0zM4.167 2.222a1.389 1.389 0 1 1-1.389 1.389 1.391 1.391 0 0 1 1.389-1.389zm2.5 5.139a.417.417 0 0 1-.417.417H2.083a.417.417 0 0 1-.417-.417v-.278a1.529 1.529 0 0 1 1.528-1.527h1.945a1.529 1.529 0 0 1 1.528 1.527zm4.583.417H8.194a.417.417 0 1 1 0-.833h3.056a.417.417 0 1 1 0 .833zm0-2.222H8.194a.417.417 0 1 1 0-.833h3.056a.417.417 0 1 1 0 .833zm0-2.222H8.194a.417.417 0 1 1 0-.833h3.056a.417.417 0 1 1 0 .833zm0 0" style="fill:#707070"/>
</svg>
