<svg xmlns="http://www.w3.org/2000/svg" width="10.951" height="13.302" viewBox="0 0 10.951 13.302">
    <g id="prefix__book" transform="translate(-37.376)">
        <g id="prefix__Group_140" data-name="Group 140" transform="translate(37.376)">
            <path id="prefix__Path_814" d="M47.844 2.126h-.805V.483A.5.5 0 0 0 46.556 0h-7.634a1.546 1.546 0 0 0-1.546 1.546v10.21a1.546 1.546 0 0 0 1.546 1.544h8.922a.483.483 0 0 0 .483-.483V2.609a.483.483 0 0 0-.483-.483zM42.98 7.263l-1.16-.95a.5.5 0 0 0-.515 0l-1.16.95V3.092h2.835zm3.092-5.137h-7.15a.58.58 0 1 1 0-1.16h7.15z" data-name="Path 814" transform="translate(-37.376)" style="fill:#707070"/>
        </g>
    </g>
</svg>
