<svg xmlns="http://www.w3.org/2000/svg" id="prefix__newspaper" width="12.974" height="10.926" viewBox="0 0 12.974 10.926">
    <defs>
        <style>
            .prefix__cls-1{fill:#707070}
        </style>
    </defs>
    <path id="prefix__Path_839" d="M422.84 3.856a1.288 1.288 0 0 0-.84-1.2v7.49h.84zm0 0" class="prefix__cls-1" data-name="Path 839" transform="translate(-411.547 -2.578)"/>
    <path id="prefix__Path_840" d="M424.1 90h-.42v5.463a.42.42 0 0 1-.42.42H422v1.233a1.261 1.261 0 1 0 2.521.028V90.42a.42.42 0 0 0-.421-.42zm0 0" class="prefix__cls-1" data-name="Path 840" transform="translate(-411.547 -87.479)"/>
    <path id="prefix__Path_841" d="M9.664 0H1.109A1.192 1.192 0 0 0 0 1.261v7.563a1.987 1.987 0 0 0 1.849 2.1h8.195a2.356 2.356 0 0 1-.38-1.288zM5.227 8.824a.4.4 0 0 1-.37.42H1.874a.4.4 0 0 1-.37-.42V5.463a.4.4 0 0 1 .37-.42h2.983a.4.4 0 0 1 .37.42zm2.589.42h-1.5a.424.424 0 0 1 0-.84h1.5a.424.424 0 0 1 0 .84zm0-1.681h-1.5a.424.424 0 0 1 0-.84h1.5a.424.424 0 0 1 0 .84zm0-1.681h-1.5a.424.424 0 0 1 0-.84h1.5a.424.424 0 0 1 0 .84zm0-1.681H1.849a.4.4 0 0 1-.37-.42.4.4 0 0 1 .37-.42h5.966a.4.4 0 0 1 .37.42.4.4 0 0 1-.37.419zm0-1.681H1.849a.4.4 0 0 1-.37-.42.4.4 0 0 1 .37-.42h5.966a.4.4 0 0 1 .37.42.4.4 0 0 1-.37.421zm0 0" class="prefix__cls-1" data-name="Path 841"/>
    <path id="prefix__Path_842" d="M91 210h2.549v2.521H91zm0 0" class="prefix__cls-1" data-name="Path 842" transform="translate(-88.747 -204.117)"/>
</svg>
