<svg xmlns="http://www.w3.org/2000/svg" xmlns:xlink="http://www.w3.org/1999/xlink" width="175" height="206" viewBox="0 0 175 206">
  <defs>
    <filter id="Rectangle_118" x="15.148" y="57.682" width="156.503" height="134.433" filterUnits="userSpaceOnUse">
      <feOffset dy="3" input="SourceAlpha"/>
      <feGaussianBlur stdDeviation="3" result="blur"/>
      <feFlood flood-opacity="0.161"/>
      <feComposite operator="in" in2="blur"/>
      <feComposite in="SourceGraphic"/>
    </filter>
    <filter id="Rectangle_119" x="6.205" y="67.01" width="160.114" height="137.47" filterUnits="userSpaceOnUse">
      <feOffset dy="3" input="SourceAlpha"/>
      <feGaussianBlur stdDeviation="3" result="blur-2"/>
      <feFlood flood-opacity="0.161"/>
      <feComposite operator="in" in2="blur-2"/>
      <feComposite in="SourceGraphic"/>
    </filter>
  </defs>
  <g id="Group_1919" data-name="Group 1919" transform="translate(-743 -2261)">
    <rect id="Rectangle_117" data-name="Rectangle 117" width="175" height="206" rx="10" transform="translate(743 2261)" fill="#fff"/>
    <text id="_4._Tunggu_notifikasi_dari_tim_kami." data-name="4. Tunggu notifikasi dari 
     tim kami." transform="translate(766.038 2291.579)" fill="#7b7b7b" font-size="11" font-family="SegoeUI, Segoe UI"><tspan x="0" y="0">4. </tspan><tspan y="0" fill="#707070">Tunggu notifikasi dari </tspan><tspan fill="#707070"><tspan x="0" y="15" xml:space="preserve">     tim kami.</tspan></tspan></text>
    <g id="Group_1902" data-name="Group 1902" transform="translate(704.27 2271.008)">
      <g id="Group_1771" data-name="Group 1771" transform="translate(62.878 53.675)">
        <g id="Group_1765" data-name="Group 1765">
          <g transform="matrix(1, 0, 0, 1, -24.15, -63.68)" filter="url(#Rectangle_118)">
            <rect id="Rectangle_118-2" data-name="Rectangle 118" width="138.503" height="116.433" transform="translate(24.15 63.68)" fill="#ebebeb"/>
          </g>
        </g>
        <g id="Group_1767" data-name="Group 1767" transform="translate(0.268 7.919)">
          <g id="Group_1766" data-name="Group 1766">
            <path id="Path_1233" data-name="Path 1233" d="M109.138,70.889c0-.067,30.888-.12,68.98-.12s68.987.054,68.987.12-30.881.12-68.987.12S109.138,70.956,109.138,70.889Z" transform="translate(-109.138 -70.769)" fill="#e0e0e0"/>
          </g>
        </g>
        <g id="Group_1768" data-name="Group 1768" transform="translate(3.004 2.388)">
          <circle id="Ellipse_13" data-name="Ellipse 13" cx="1.48" cy="1.48" r="1.48" fill="#e0e0e0"/>
        </g>
        <g id="Group_1769" data-name="Group 1769" transform="translate(7.123 2.388)">
          <circle id="Ellipse_14" data-name="Ellipse 14" cx="1.48" cy="1.48" r="1.48" fill="#e0e0e0"/>
        </g>
        <g id="Group_1770" data-name="Group 1770" transform="translate(11.693 2.388)">
          <circle id="Ellipse_15" data-name="Ellipse 15" cx="1.48" cy="1.48" r="1.48" fill="#e0e0e0"/>
        </g>
      </g>
      <g id="Group_1773" data-name="Group 1773" transform="translate(53.814 62.882)">
        <g id="Group_1772" data-name="Group 1772" transform="translate(0 0)">
          <path id="Path_1234" data-name="Path 1234" d="M231.229,193.14c0-.848-.04-47.5-.1-119.47l.1.1-142.1.019h-.013l.12-.12c-.005,43.293-.009,84.126-.013,119.469l-.107-.107,142.114.107-142.114.107h-.107v-.107C89,157.8,89,116.963,88.994,73.67v-.12h.133l142.1.019h.1v.1C231.269,145.645,231.23,192.292,231.229,193.14Z" transform="translate(-88.994 -73.55)" fill="#fafafa"/>
        </g>
      </g>
      <g transform="matrix(1, 0, 0, 1, 38.73, -10.01)" filter="url(#Rectangle_119)">
        <rect id="Rectangle_119-2" data-name="Rectangle 119" width="142.114" height="119.47" transform="translate(15.2 73.01)" fill="#fafafa"/>
      </g>
      <g id="Group_1774" data-name="Group 1774" transform="translate(54.21 71.251)">
        <rect id="Rectangle_120" data-name="Rectangle 120" width="51.032" height="11.698" fill="#ebebeb"/>
      </g>
      <g id="Group_1786" data-name="Group 1786" transform="translate(58.466 74.738)">
        <g id="Group_1783" data-name="Group 1783">
          <g id="Group_1776" data-name="Group 1776">
            <g id="Group_1775" data-name="Group 1775">
              <path id="Path_1235" data-name="Path 1235" d="M107.65,105.083a3.8,3.8,0,0,1-.021-.43q-.01-.449-.025-1.18c-.012-1.035-.03-2.47-.051-4.2l.1.1-8.466.024.12-.12v.772q0,.384,0,.762,0,.757,0,1.488c0,.973-.005,1.907-.007,2.792l-.11-.11,6.07.054,1.752.03.472.013a.948.948,0,0,1,.171.013,5.145,5.145,0,0,1-.6.026l-1.727.03-6.142.054h-.11v-.111c0-.885-.005-1.819-.008-2.792q0-.73,0-1.488,0-.378,0-.762v-.772l.121-.121,8.466.024h.1v.1c-.021,1.759-.038,3.215-.051,4.265q-.015.718-.025,1.159A2.649,2.649,0,0,1,107.65,105.083Z" transform="translate(-99.037 -99.145)" fill="#263238"/>
            </g>
          </g>
          <g id="Group_1778" data-name="Group 1778" transform="translate(0.147 0.122)">
            <g id="Group_1777" data-name="Group 1777">
              <path id="Path_1236" data-name="Path 1236" d="M107.82,99.409a1.669,1.669,0,0,1-.3.341c-.2.208-.505.5-.881.864-.751.723-1.8,1.708-2.969,2.785a1.579,1.579,0,1,1-.165,0l0,0,0,0-.007-.006-.013-.013-.027-.025-.055-.05-.108-.1-.215-.2-.419-.389-.79-.738-1.328-1.26c-.376-.361-.677-.656-.881-.864a1.653,1.653,0,0,1-.3-.341,1.658,1.658,0,0,1,.365.272c.224.187.542.463.933.808l1.363,1.222.8.727.422.386.215.2.109.1.055.05.027.025.013.013.007.006,0,0,0,0a1.418,1.418,0,1,1-.162,0c1.169-1.077,2.236-2.043,3.017-2.733.391-.345.709-.621.933-.808A1.633,1.633,0,0,1,107.82,99.409Z" transform="translate(-99.353 -99.408)" fill="#263238"/>
            </g>
          </g>
          <g id="Group_1780" data-name="Group 1780" transform="translate(0.132 2.72)">
            <g id="Group_1779" data-name="Group 1779">
              <path id="Path_1237" data-name="Path 1237" d="M102.156,105.018a19.272,19.272,0,0,1-2.832,3.24,19.272,19.272,0,0,1,2.832-3.24Z" transform="translate(-99.321 -105.016)" fill="#263238"/>
            </g>
          </g>
          <g id="Group_1782" data-name="Group 1782" transform="translate(5.925 2.597)">
            <g id="Group_1781" data-name="Group 1781">
              <path id="Path_1238" data-name="Path 1238" d="M114.569,108.159a19.881,19.881,0,0,1-2.74-3.407,19.868,19.868,0,0,1,2.74,3.407Z" transform="translate(-111.826 -104.75)" fill="#263238"/>
            </g>
          </g>
        </g>
        <g id="Group_1785" data-name="Group 1785" transform="translate(14.235 2.038)">
          <g id="Group_1784" data-name="Group 1784">
            <path id="Path_1239" data-name="Path 1239" d="M156.444,103.664c0,.067-5.973.121-13.339.121s-13.34-.054-13.34-.121,5.972-.12,13.34-.12S156.444,103.6,156.444,103.664Z" transform="translate(-129.765 -103.544)" fill="#263238"/>
          </g>
        </g>
      </g>
      <g id="Group_1788" data-name="Group 1788" transform="translate(105.242 123.062)">
        <g id="Group_1787" data-name="Group 1787">
          <path id="Path_1240" data-name="Path 1240" d="M290.266,203.583c0,.067-20.205.121-45.125.121s-45.129-.054-45.129-.121,20.2-.12,45.129-.12S290.266,203.517,290.266,203.583Z" transform="translate(-200.012 -203.463)" fill="#263238"/>
        </g>
      </g>
      <g id="Group_1789" data-name="Group 1789" transform="translate(105.285 82.828)">
        <rect id="Rectangle_121" data-name="Rectangle 121" width="90.811" height="20.55" fill="#e8505b"/>
      </g>
      <g id="Group_1790" data-name="Group 1790" transform="translate(53.814 62.882)">
        <path id="Path_1241" data-name="Path 1241" d="M231.229,193.14c0-.848-.04-47.5-.1-119.47l.1.1-142.1.019h-.013l.12-.12c-.005,43.293-.009,84.126-.013,119.469l-.107-.107,142.114.107-142.114.107h-.107v-.107C89,157.8,89,116.963,88.994,73.67v-.12h.133l142.1.019h.1v.1C231.269,145.645,231.23,192.292,231.229,193.14Z" transform="translate(-88.994 -73.55)" fill="#edebeb"/>
      </g>
      <g id="Group_1791" data-name="Group 1791" transform="translate(54.21 71.13)">
        <path id="Path_1242" data-name="Path 1242" d="M89.848,91.477c0-.067,31.693-.121,70.779-.121s70.786.054,70.786.121-31.686.12-70.786.12S89.848,91.544,89.848,91.477Z" transform="translate(-89.848 -91.356)" fill="#edebeb"/>
      </g>
      <circle id="Ellipse_16" data-name="Ellipse 16" cx="1.519" cy="1.519" r="1.519" transform="translate(57.017 65.452)" fill="#e8505b"/>
      <circle id="Ellipse_17" data-name="Ellipse 17" cx="1.519" cy="1.519" r="1.519" transform="translate(61.244 65.452)" fill="#e8505b"/>
      <path id="Path_1243" data-name="Path 1243" d="M117.747,79.544a1.519,1.519,0,1,1-2.148,0A1.519,1.519,0,0,1,117.747,79.544Z" transform="translate(-49.221 -13.647)" fill="#e8505b"/>
      <g id="Group_1796" data-name="Group 1796" transform="translate(71.3 87.558)">
        <g id="Group_1793" data-name="Group 1793" transform="translate(0)">
          <g id="Group_1792" data-name="Group 1792">
            <path id="Path_1244" data-name="Path 1244" d="M128.257,126.917a1.536,1.536,0,0,1,.327-.025l.961-.026,3.53-.045h.048l.03.039,1.554,2.047.022.029v.038c0,.937.006,1.957.008,3.019v.12H133.2l-6.355-.019h-.1v-.1c.01-1.045.018-1.975.025-2.762v-.023l.011-.018,1.082-1.7a4.95,4.95,0,0,1,.4-.577.827.827,0,0,1-.084.175l-.263.468-1,1.71.011-.039c.007.788.016,1.718.025,2.762l-.1-.1,6.355-.019h1.419l-.12.12c0-1.063.006-2.082.008-3.019l.022.067L133,126.976l.077.039-3.49-.046-.975-.025A2.031,2.031,0,0,1,128.257,126.917Z" transform="translate(-126.741 -126.82)" fill="#263238"/>
          </g>
        </g>
        <g id="Group_1795" data-name="Group 1795" transform="translate(0.103 2.266)">
          <g id="Group_1794" data-name="Group 1794">
            <path id="Path_1245" data-name="Path 1245" d="M134.737,131.742a2.711,2.711,0,0,1-.67.093c-.427.038-1.036.082-1.767.126l.1-.1a2.075,2.075,0,0,1-.365,1.079,1.443,1.443,0,0,1-.485.422,1.66,1.66,0,0,1-1.92-.384,2.363,2.363,0,0,1-.52-1.106l.1.086c-.676-.011-1.239-.025-1.632-.043a2.377,2.377,0,0,1-.617-.06,2.418,2.418,0,0,1,.617-.059c.393-.018.955-.032,1.632-.043h.082l.02.087a2.227,2.227,0,0,0,.49.984,1.447,1.447,0,0,0,1.639.325,1.225,1.225,0,0,0,.406-.347,1.926,1.926,0,0,0,.342-.95l.01-.1.09,0c.731-.024,1.342-.037,1.771-.039A2.739,2.739,0,0,1,134.737,131.742Z" transform="translate(-126.963 -131.712)" fill="#263238"/>
          </g>
        </g>
      </g>
      <g id="Group_1798" data-name="Group 1798" transform="translate(82.278 87.776)">
        <g id="Group_1797" data-name="Group 1797" transform="translate(0 0)">
          <path id="Path_1246" data-name="Path 1246" d="M164.752,127.41a1.516,1.516,0,0,1,.4-.037v.074c-.945.049-3.793.084-7.155.084-2.086,0-3.974-.013-5.34-.036l-1.619-.038a2.8,2.8,0,0,1-.593-.047,2.825,2.825,0,0,1,.593-.047l1.619-.038c1.367-.022,3.254-.035,5.34-.035,3.362,0,6.211.035,7.155.083v.074A1.489,1.489,0,0,1,164.752,127.41Z" transform="translate(-150.44 -127.29)" fill="#263238"/>
        </g>
      </g>
      <g id="Group_1800" data-name="Group 1800" transform="translate(82.278 90.808)">
        <g id="Group_1799" data-name="Group 1799" transform="translate(0 0)">
          <path id="Path_1247" data-name="Path 1247" d="M164.752,133.956a1.489,1.489,0,0,1,.4-.037v.074c-.945.048-3.793.083-7.155.083-2.086,0-3.974-.013-5.34-.035L151.033,134a2.826,2.826,0,0,1-.593-.047,2.841,2.841,0,0,1,.593-.047l1.619-.038c1.367-.022,3.254-.036,5.34-.036,3.362,0,6.211.035,7.155.084v.074A1.489,1.489,0,0,1,164.752,133.956Z" transform="translate(-150.44 -133.835)" fill="#263238"/>
        </g>
      </g>
      <g id="Group_1802" data-name="Group 1802" transform="translate(82.278 93.84)">
        <g id="Group_1801" data-name="Group 1801">
          <path id="Path_1248" data-name="Path 1248" d="M164.752,140.5a1.516,1.516,0,0,1,.4-.037v.074c-.945.049-3.793.084-7.155.084-2.086,0-3.974-.013-5.34-.036l-1.619-.038a2.839,2.839,0,0,1-.593-.047,2.825,2.825,0,0,1,.593-.047l1.619-.038c1.367-.022,3.254-.035,5.34-.035,3.362,0,6.211.035,7.155.083v.074A1.489,1.489,0,0,1,164.752,140.5Z" transform="translate(-150.44 -140.381)" fill="#263238"/>
        </g>
      </g>
      <g id="Group_1807" data-name="Group 1807" transform="translate(71.3 109.256)">
        <g id="Group_1804" data-name="Group 1804" transform="translate(0)">
          <g id="Group_1803" data-name="Group 1803">
            <path id="Path_1249" data-name="Path 1249" d="M128.257,173.757a1.539,1.539,0,0,1,.327-.025l.961-.026,3.53-.045h.048l.03.039,1.554,2.047.022.029v.038c0,.937.006,1.956.008,3.019v.12H133.2l-6.355-.019h-.1v-.1c.01-1.045.018-1.975.025-2.763v-.022l.011-.018,1.082-1.7a4.955,4.955,0,0,1,.4-.577.839.839,0,0,1-.084.175l-.263.468-1,1.71.011-.04c.007.788.016,1.718.025,2.763l-.1-.1,6.355-.019h1.419l-.12.12c0-1.063.006-2.082.008-3.019l.022.067L133,173.816l.077.038-3.49-.045-.975-.025A2.031,2.031,0,0,1,128.257,173.757Z" transform="translate(-126.741 -173.66)" fill="#263238"/>
          </g>
        </g>
        <g id="Group_1806" data-name="Group 1806" transform="translate(0.103 2.266)">
          <g id="Group_1805" data-name="Group 1805">
            <path id="Path_1250" data-name="Path 1250" d="M134.737,178.582a2.711,2.711,0,0,1-.67.093c-.427.038-1.036.082-1.767.126l.1-.1a2.078,2.078,0,0,1-.365,1.079,1.443,1.443,0,0,1-.485.422,1.659,1.659,0,0,1-1.92-.384,2.359,2.359,0,0,1-.52-1.105l.1.085c-.676-.01-1.239-.025-1.632-.043a2.377,2.377,0,0,1-.617-.06,2.418,2.418,0,0,1,.617-.059c.393-.018.955-.032,1.632-.043h.082l.02.087a2.227,2.227,0,0,0,.49.984,1.447,1.447,0,0,0,1.639.325,1.226,1.226,0,0,0,.406-.347,1.923,1.923,0,0,0,.342-.95l.01-.1.09,0c.731-.024,1.342-.037,1.771-.039A2.71,2.71,0,0,1,134.737,178.582Z" transform="translate(-126.963 -178.552)" fill="#263238"/>
          </g>
        </g>
      </g>
      <g id="Group_1809" data-name="Group 1809" transform="translate(82.278 109.474)">
        <g id="Group_1808" data-name="Group 1808">
          <path id="Path_1251" data-name="Path 1251" d="M164.752,174.25a1.516,1.516,0,0,1,.4-.037v.074c-.945.049-3.793.084-7.155.084-2.086,0-3.974-.014-5.34-.036l-1.619-.038a2.841,2.841,0,0,1-.593-.047,2.828,2.828,0,0,1,.593-.047l1.619-.038c1.367-.022,3.254-.035,5.34-.035,3.362,0,6.211.035,7.155.083v.074A1.489,1.489,0,0,1,164.752,174.25Z" transform="translate(-150.44 -174.13)" fill="#263238"/>
        </g>
      </g>
      <g id="Group_1811" data-name="Group 1811" transform="translate(82.278 112.506)">
        <g id="Group_1810" data-name="Group 1810">
          <path id="Path_1252" data-name="Path 1252" d="M164.752,180.8a1.49,1.49,0,0,1,.4-.037v.074c-.945.048-3.793.083-7.155.083-2.086,0-3.974-.013-5.34-.035l-1.619-.038a2.825,2.825,0,0,1-.593-.047,2.8,2.8,0,0,1,.593-.047l1.619-.038c1.367-.022,3.254-.036,5.34-.036,3.362,0,6.211.035,7.155.084v.074A1.514,1.514,0,0,1,164.752,180.8Z" transform="translate(-150.44 -180.675)" fill="#263238"/>
        </g>
      </g>
      <g id="Group_1813" data-name="Group 1813" transform="translate(82.278 115.538)">
        <g id="Group_1812" data-name="Group 1812">
          <path id="Path_1253" data-name="Path 1253" d="M164.752,187.341a1.515,1.515,0,0,1,.4-.037v.074c-.945.049-3.793.084-7.155.084-2.086,0-3.974-.014-5.34-.036l-1.619-.038a2.84,2.84,0,0,1-.593-.047,2.825,2.825,0,0,1,.593-.047l1.619-.038c1.367-.022,3.254-.035,5.34-.035,3.362,0,6.211.035,7.155.083v.074A1.489,1.489,0,0,1,164.752,187.341Z" transform="translate(-150.44 -187.221)" fill="#263238"/>
        </g>
      </g>
      <g id="Group_1818" data-name="Group 1818" transform="translate(71.3 130.954)">
        <g id="Group_1815" data-name="Group 1815" transform="translate(0 0)">
          <g id="Group_1814" data-name="Group 1814">
            <path id="Path_1254" data-name="Path 1254" d="M128.257,220.6a1.5,1.5,0,0,1,.327-.025l.961-.026,3.53-.045h.048l.03.04,1.554,2.047.022.029v.038c0,.937.006,1.956.008,3.019v.12H133.2l-6.355-.019h-.1v-.1c.01-1.045.018-1.975.025-2.763v-.022l.011-.018,1.082-1.7a4.912,4.912,0,0,1,.4-.576.839.839,0,0,1-.084.175l-.263.468-1,1.71.011-.04c.007.788.016,1.718.025,2.763l-.1-.1,6.355-.019h1.419l-.12.12c0-1.063.006-2.082.008-3.019l.022.067L133,220.655l.077.038-3.49-.045-.975-.026A2.008,2.008,0,0,1,128.257,220.6Z" transform="translate(-126.741 -220.499)" fill="#263238"/>
          </g>
        </g>
        <g id="Group_1817" data-name="Group 1817" transform="translate(0.103 2.266)">
          <g id="Group_1816" data-name="Group 1816">
            <path id="Path_1255" data-name="Path 1255" d="M134.737,225.422a2.711,2.711,0,0,1-.67.093c-.427.038-1.036.082-1.767.126l.1-.1a2.078,2.078,0,0,1-.365,1.079,1.443,1.443,0,0,1-.485.422,1.659,1.659,0,0,1-1.92-.384,2.359,2.359,0,0,1-.52-1.105l.1.085c-.676-.011-1.239-.025-1.632-.043a2.376,2.376,0,0,1-.617-.06,2.418,2.418,0,0,1,.617-.059c.393-.018.955-.032,1.632-.043h.082l.02.087a2.227,2.227,0,0,0,.49.984,1.447,1.447,0,0,0,1.639.325,1.226,1.226,0,0,0,.406-.347,1.923,1.923,0,0,0,.342-.95l.01-.1.09,0c.731-.024,1.342-.037,1.771-.039A2.711,2.711,0,0,1,134.737,225.422Z" transform="translate(-126.963 -225.392)" fill="#263238"/>
          </g>
        </g>
      </g>
      <g id="Group_1820" data-name="Group 1820" transform="translate(82.278 131.172)">
        <g id="Group_1819" data-name="Group 1819">
          <path id="Path_1256" data-name="Path 1256" d="M164.752,221.09a1.489,1.489,0,0,1,.4-.037v.074c-.945.049-3.793.083-7.155.083-2.086,0-3.974-.013-5.34-.035l-1.619-.038a2.839,2.839,0,0,1-.593-.047,2.828,2.828,0,0,1,.593-.047l1.619-.038c1.367-.022,3.254-.035,5.34-.035,3.362,0,6.211.035,7.155.083v.074A1.489,1.489,0,0,1,164.752,221.09Z" transform="translate(-150.44 -220.97)" fill="#263238"/>
        </g>
      </g>
      <g id="Group_1822" data-name="Group 1822" transform="translate(82.278 134.204)">
        <g id="Group_1821" data-name="Group 1821">
          <path id="Path_1257" data-name="Path 1257" d="M164.752,227.636a1.49,1.49,0,0,1,.4-.037v.074c-.945.048-3.793.083-7.155.083-2.086,0-3.974-.013-5.34-.035l-1.619-.038a2.823,2.823,0,0,1-.593-.047,2.8,2.8,0,0,1,.593-.047l1.619-.038c1.367-.022,3.254-.036,5.34-.036,3.362,0,6.211.035,7.155.084v.074A1.514,1.514,0,0,1,164.752,227.636Z" transform="translate(-150.44 -227.515)" fill="#263238"/>
        </g>
      </g>
      <g id="Group_1824" data-name="Group 1824" transform="translate(82.278 137.236)">
        <g id="Group_1823" data-name="Group 1823">
          <path id="Path_1258" data-name="Path 1258" d="M164.752,234.181a1.491,1.491,0,0,1,.4-.037v.074c-.945.049-3.793.084-7.155.084-2.086,0-3.974-.014-5.34-.036l-1.619-.038a2.825,2.825,0,0,1-.593-.047,2.826,2.826,0,0,1,.593-.047l1.619-.038c1.367-.022,3.254-.035,5.34-.035,3.362,0,6.211.035,7.155.083v.074A1.489,1.489,0,0,1,164.752,234.181Z" transform="translate(-150.44 -234.061)" fill="#263238"/>
        </g>
      </g>
      <g id="Group_1833" data-name="Group 1833" transform="translate(181.976 110.303)">
        <g id="Group_1826" data-name="Group 1826">
          <g id="Group_1825" data-name="Group 1825">
            <path id="Path_1259" data-name="Path 1259" d="M374.275,181.858a3.731,3.731,0,0,1-.022-.43q-.009-.449-.025-1.18c-.013-1.035-.03-2.47-.051-4.2l.1.1-8.465.024c-.027.026.227-.228.12-.12h0v.77q0,.384,0,.763,0,.757,0,1.487c0,.973-.005,1.908-.008,2.792l-.11-.11,6.07.055,1.751.03.473.013a1.064,1.064,0,0,1,.172.013,5.076,5.076,0,0,1-.6.026l-1.727.03-6.142.054h-.11v-.111c0-.884-.005-1.819-.008-2.792q0-.73,0-1.487,0-.379,0-.763v-.77h0l.121-.121,8.465.024h.1v.1c-.021,1.76-.038,3.215-.051,4.265-.01.479-.019.865-.025,1.159A2.738,2.738,0,0,1,374.275,181.858Z" transform="translate(-365.661 -175.921)" fill="#263238"/>
          </g>
        </g>
        <g id="Group_1828" data-name="Group 1828" transform="translate(0.147 0.121)">
          <g id="Group_1827" data-name="Group 1827">
            <path id="Path_1260" data-name="Path 1260" d="M374.445,176.184a1.661,1.661,0,0,1-.3.341c-.2.208-.505.5-.881.864-.751.722-1.8,1.708-2.969,2.785-.327,0-.092,0-.165,0h0l0,0-.007-.006-.014-.013-.027-.025-.054-.051-.109-.1-.214-.2-.419-.389-.79-.737-1.328-1.26c-.376-.361-.677-.656-.881-.865a1.653,1.653,0,0,1-.3-.341,1.671,1.671,0,0,1,.364.272c.224.187.543.463.933.808l1.363,1.222.8.727.422.386.215.2.108.1.055.05.027.025.014.012.007.006,0,0h0c-.072,0,.164,0-.162,0,1.169-1.077,2.237-2.043,3.017-2.734.39-.345.709-.621.933-.808A1.665,1.665,0,0,1,374.445,176.184Z" transform="translate(-365.978 -176.183)" fill="#263238"/>
          </g>
        </g>
        <g id="Group_1830" data-name="Group 1830" transform="translate(0.132 2.72)">
          <g id="Group_1829" data-name="Group 1829">
            <path id="Path_1261" data-name="Path 1261" d="M368.78,181.794a19.214,19.214,0,0,1-2.832,3.239,19.272,19.272,0,0,1,2.832-3.239Z" transform="translate(-365.946 -181.792)" fill="#263238"/>
          </g>
        </g>
        <g id="Group_1832" data-name="Group 1832" transform="translate(5.925 2.597)">
          <g id="Group_1831" data-name="Group 1831">
            <path id="Path_1262" data-name="Path 1262" d="M381.194,184.935a19.854,19.854,0,0,1-2.74-3.407,19.843,19.843,0,0,1,2.74,3.407Z" transform="translate(-378.451 -181.526)" fill="#263238"/>
          </g>
        </g>
      </g>
      <g id="Group_1842" data-name="Group 1842" transform="translate(181.976 130.576)">
        <g id="Group_1835" data-name="Group 1835" transform="translate(0 0)">
          <g id="Group_1834" data-name="Group 1834">
            <path id="Path_1263" data-name="Path 1263" d="M374.275,225.623a3.745,3.745,0,0,1-.022-.43q-.009-.449-.025-1.18c-.013-1.035-.03-2.47-.051-4.2l.1.1-8.465.024c-.027.026.227-.228.12-.12h0v.771q0,.384,0,.762,0,.757,0,1.488c0,.973-.005,1.907-.008,2.791l-.11-.11,6.07.054,1.751.03.473.013a.948.948,0,0,1,.172.013,5.3,5.3,0,0,1-.6.026l-1.727.03-6.142.054h-.11v-.111c0-.884-.005-1.819-.008-2.791q0-.73,0-1.488,0-.379,0-.762v-.771h0l.121-.121,8.465.024h.1v.1c-.021,1.76-.038,3.215-.051,4.265q-.015.718-.025,1.158A2.75,2.75,0,0,1,374.275,225.623Z" transform="translate(-365.661 -219.685)" fill="#263238"/>
          </g>
        </g>
        <g id="Group_1837" data-name="Group 1837" transform="translate(0.147 0.121)">
          <g id="Group_1836" data-name="Group 1836">
            <path id="Path_1264" data-name="Path 1264" d="M374.445,219.948a1.634,1.634,0,0,1-.3.341c-.2.208-.505.5-.881.864-.751.722-1.8,1.708-2.969,2.785-.327,0-.092,0-.165,0h0l0,0-.007-.006-.014-.013-.027-.025-.054-.051-.109-.1-.214-.2-.419-.389-.79-.738-1.328-1.26c-.376-.361-.677-.656-.881-.864a1.633,1.633,0,0,1-.3-.341,1.665,1.665,0,0,1,.364.272c.224.187.543.463.933.808l1.363,1.222.8.728.422.386.215.2.108.1.055.05.027.025.014.013.007.006,0,0,0,0c-.072,0,.164,0-.162,0,1.169-1.077,2.237-2.043,3.017-2.733.39-.345.709-.622.933-.808A1.664,1.664,0,0,1,374.445,219.948Z" transform="translate(-365.978 -219.947)" fill="#263238"/>
          </g>
        </g>
        <g id="Group_1839" data-name="Group 1839" transform="translate(0.132 2.72)">
          <g id="Group_1838" data-name="Group 1838">
            <path id="Path_1265" data-name="Path 1265" d="M368.78,225.558a19.243,19.243,0,0,1-2.832,3.24,19.245,19.245,0,0,1,2.832-3.24Z" transform="translate(-365.946 -225.556)" fill="#263238"/>
          </g>
        </g>
        <g id="Group_1841" data-name="Group 1841" transform="translate(5.925 2.597)">
          <g id="Group_1840" data-name="Group 1840">
            <path id="Path_1266" data-name="Path 1266" d="M381.194,228.7a19.882,19.882,0,0,1-2.74-3.407,19.87,19.87,0,0,1,2.74,3.407Z" transform="translate(-378.451 -225.29)" fill="#263238"/>
          </g>
        </g>
      </g>
      <g id="Group_1851" data-name="Group 1851" transform="translate(181.976 150.054)">
        <g id="Group_1844" data-name="Group 1844">
          <g id="Group_1843" data-name="Group 1843">
            <path id="Path_1267" data-name="Path 1267" d="M374.275,267.67a3.733,3.733,0,0,1-.022-.43q-.009-.448-.025-1.18c-.013-1.035-.03-2.47-.051-4.2l.1.1-8.465.024c-.027.026.227-.228.12-.12h0v.77q0,.384,0,.763,0,.756,0,1.487c0,.973-.005,1.907-.008,2.792l-.11-.11,6.07.055,1.751.029.473.013a1.009,1.009,0,0,1,.172.013,5.059,5.059,0,0,1-.6.026l-1.727.029-6.142.055h-.11v-.111c0-.885-.005-1.819-.008-2.792q0-.73,0-1.487,0-.379,0-.763v-.77h0c-.108.107.147-.148.121-.122l8.465.024h.1v.1c-.021,1.76-.038,3.215-.051,4.265q-.015.718-.025,1.159A2.736,2.736,0,0,1,374.275,267.67Z" transform="translate(-365.661 -261.732)" fill="#263238"/>
          </g>
        </g>
        <g id="Group_1846" data-name="Group 1846" transform="translate(0.147 0.122)">
          <g id="Group_1845" data-name="Group 1845">
            <path id="Path_1268" data-name="Path 1268" d="M374.445,262a1.655,1.655,0,0,1-.3.341c-.2.208-.505.5-.881.865-.751.722-1.8,1.707-2.969,2.785-.327,0-.092,0-.165,0l0,0,0,0-.007-.007-.014-.012-.027-.025-.054-.05-.109-.1-.214-.2-.419-.389-.79-.737-1.328-1.26c-.376-.361-.677-.657-.881-.865a.228.228,0,1,1,.063-.069c.224.187.543.463.933.808l1.363,1.222.8.727.422.386.215.2.108.1.055.05.027.025.014.013.007.006,0,0h0c-.072,0,.164,0-.162,0,1.169-1.078,2.237-2.043,3.017-2.734.39-.345.709-.621.933-.808A1.65,1.65,0,0,1,374.445,262Z" transform="translate(-365.978 -261.995)" fill="#263238"/>
          </g>
        </g>
        <g id="Group_1848" data-name="Group 1848" transform="translate(0.132 2.72)">
          <g id="Group_1847" data-name="Group 1847">
            <path id="Path_1269" data-name="Path 1269" d="M368.78,267.606a19.216,19.216,0,0,1-2.832,3.239,19.267,19.267,0,0,1,2.832-3.239Z" transform="translate(-365.946 -267.604)" fill="#263238"/>
          </g>
        </g>
        <g id="Group_1850" data-name="Group 1850" transform="translate(5.925 2.597)">
          <g id="Group_1849" data-name="Group 1849">
            <path id="Path_1270" data-name="Path 1270" d="M381.194,270.747a19.9,19.9,0,0,1-2.74-3.407,19.84,19.84,0,0,1,2.74,3.407Z" transform="translate(-378.451 -267.338)" fill="#263238"/>
          </g>
        </g>
      </g>
      <g id="Group_1852" data-name="Group 1852" transform="translate(105.242 82.828)">
        <path id="Path_1271" data-name="Path 1271" d="M290.266,116.73c0,.066-20.205.12-45.125.12s-45.129-.054-45.129-.12,20.2-.121,45.129-.121S290.266,116.663,290.266,116.73Z" transform="translate(-200.012 -116.609)" fill="#263238"/>
      </g>
      <g id="Group_1853" data-name="Group 1853" transform="translate(105.242 102.945)">
        <path id="Path_1272" data-name="Path 1272" d="M290.266,160.156c0,.067-20.205.121-45.125.121s-45.129-.054-45.129-.121,20.2-.12,45.129-.12S290.266,160.09,290.266,160.156Z" transform="translate(-200.012 -160.036)" fill="#263238"/>
      </g>
      <g id="Group_1854" data-name="Group 1854" transform="translate(105.242 142.766)">
        <path id="Path_1273" data-name="Path 1273" d="M290.266,246.118c0,.067-20.205.121-45.125.121s-45.129-.054-45.129-.121,20.2-.12,45.129-.12S290.266,246.052,290.266,246.118Z" transform="translate(-200.012 -245.998)" fill="#263238"/>
      </g>
      <g id="Group_1855" data-name="Group 1855" transform="translate(105.242 163.151)">
        <path id="Path_1274" data-name="Path 1274" d="M290.266,290.124c0,.067-20.205.12-45.125.12s-45.129-.054-45.129-.12,20.2-.12,45.129-.12S290.266,290.058,290.266,290.124Z" transform="translate(-200.012 -290.004)" fill="#263238"/>
      </g>
      <g id="Group_1856" data-name="Group 1856" transform="translate(110.356 89.272)">
        <path id="Path_1275" data-name="Path 1275" d="M217.644,138.15c0-.012.1-.009.277-.063a1.034,1.034,0,0,0,.593-.5,2.9,2.9,0,0,0,.1-1.258c-.005-.513-.011-1.09-.018-1.725s-.01-1.342-.015-2.091q0-.282,0-.573a1.7,1.7,0,0,0-.05-.553.934.934,0,0,0-.826-.635l-5.49.006a.925.925,0,0,0-.9.753c-.032.43-.01.931-.018,1.38,0,.919,0,1.806-.007,2.652q0,.633-.005,1.235a2.407,2.407,0,0,0,.028.563.937.937,0,0,0,.687.683,2.232,2.232,0,0,0,.509.031l1,.008,3.027.038.823.022a1.281,1.281,0,0,1,.287.025,1.306,1.306,0,0,1-.287.024l-.823.023-3.027.038-1,.008a2.391,2.391,0,0,1-.554-.029,1.133,1.133,0,0,1-.842-.82,2.531,2.531,0,0,1-.04-.614q0-.6-.005-1.235c0-.846,0-1.733-.007-2.652q0-.345,0-.7a5.948,5.948,0,0,1,.019-.728,1.165,1.165,0,0,1,1.141-.951l5.505.013a1.15,1.15,0,0,1,1.013.79,1.9,1.9,0,0,1,.055.619q0,.291,0,.573c-.006.749-.01,1.449-.015,2.091s-.013,1.212-.018,1.725q-.006.379-.01.708a1.142,1.142,0,0,1-.145.6,1.055,1.055,0,0,1-.662.5A.7.7,0,0,1,217.644,138.15Z" transform="translate(-211.052 -130.52)" fill="#263238"/>
      </g>
      <g id="Group_1857" data-name="Group 1857" transform="translate(110.356 109.261)">
        <path id="Path_1276" data-name="Path 1276" d="M217.644,181.3c0-.012.1-.009.277-.063a1.034,1.034,0,0,0,.593-.5,2.9,2.9,0,0,0,.1-1.258c-.005-.513-.011-1.09-.018-1.725s-.01-1.342-.015-2.091q0-.282,0-.573a1.7,1.7,0,0,0-.05-.553.934.934,0,0,0-.826-.635l-5.49.006a.925.925,0,0,0-.9.753c-.032.43-.01.931-.018,1.38,0,.919,0,1.806-.007,2.652q0,.633-.005,1.235a2.407,2.407,0,0,0,.028.563.937.937,0,0,0,.687.683,2.233,2.233,0,0,0,.509.031l1,.008,3.027.038.823.022a1.281,1.281,0,0,1,.287.025,1.306,1.306,0,0,1-.287.024l-.823.023-3.027.038-1,.008a2.392,2.392,0,0,1-.554-.029,1.133,1.133,0,0,1-.842-.82,2.531,2.531,0,0,1-.04-.614q0-.6-.005-1.235c0-.846,0-1.733-.007-2.652q0-.345,0-.7a5.948,5.948,0,0,1,.019-.728,1.165,1.165,0,0,1,1.141-.951l5.505.013a1.151,1.151,0,0,1,1.013.79,1.9,1.9,0,0,1,.055.619q0,.291,0,.573c-.006.749-.01,1.449-.015,2.091s-.013,1.212-.018,1.725q-.006.379-.01.708a1.142,1.142,0,0,1-.145.6,1.055,1.055,0,0,1-.662.5A.7.7,0,0,1,217.644,181.3Z" transform="translate(-211.052 -173.671)" fill="#263238"/>
      </g>
      <g id="Group_1858" data-name="Group 1858" transform="translate(110.356 149.39)">
        <path id="Path_1277" data-name="Path 1277" d="M217.644,267.929c0-.012.1-.009.277-.064a1.033,1.033,0,0,0,.593-.5,2.9,2.9,0,0,0,.1-1.258c-.005-.513-.011-1.09-.018-1.725s-.01-1.342-.015-2.091q0-.282,0-.573a1.706,1.706,0,0,0-.05-.553.934.934,0,0,0-.826-.634l-5.49.006a.924.924,0,0,0-.9.753c-.032.429-.01.93-.018,1.38,0,.919,0,1.806-.007,2.652q0,.633-.005,1.235a2.4,2.4,0,0,0,.028.563.937.937,0,0,0,.687.683,2.286,2.286,0,0,0,.509.031l1,.007,3.027.038.823.023a1.28,1.28,0,0,1,.287.025,1.3,1.3,0,0,1-.287.024l-.823.023-3.027.038-1,.007a2.392,2.392,0,0,1-.554-.028,1.135,1.135,0,0,1-.842-.82,2.533,2.533,0,0,1-.04-.614q0-.6-.005-1.235c0-.846,0-1.733-.007-2.652q0-.345,0-.7a5.943,5.943,0,0,1,.019-.727,1.166,1.166,0,0,1,1.141-.951l5.505.013a1.15,1.15,0,0,1,1.013.79,1.9,1.9,0,0,1,.055.619q0,.291,0,.573c-.006.749-.01,1.449-.015,2.091s-.013,1.212-.018,1.725c0,.252-.007.488-.01.707a1.145,1.145,0,0,1-.145.6,1.056,1.056,0,0,1-.662.5A.711.711,0,0,1,217.644,267.929Z" transform="translate(-211.052 -260.298)" fill="#263238"/>
      </g>
      <g id="Group_1867" data-name="Group 1867" transform="translate(181.976 170.405)">
        <g id="Group_1860" data-name="Group 1860">
          <g id="Group_1859" data-name="Group 1859">
            <path id="Path_1278" data-name="Path 1278" d="M374.275,311.6a3.744,3.744,0,0,1-.022-.43q-.009-.449-.025-1.18c-.013-1.035-.03-2.47-.051-4.2l.1.1-8.465.024c-.027.026.227-.228.12-.12h0v.771q0,.384,0,.763,0,.757,0,1.488c0,.973-.005,1.907-.008,2.792l-.11-.11,6.07.054,1.751.03.473.013a.947.947,0,0,1,.172.013,5.159,5.159,0,0,1-.6.026l-1.727.03-6.142.054h-.11V311.6c0-.885-.005-1.819-.008-2.792q0-.73,0-1.488,0-.378,0-.763v-.771h0l.121-.121,8.465.024h.1v.1c-.021,1.759-.038,3.215-.051,4.265q-.015.719-.025,1.158A2.742,2.742,0,0,1,374.275,311.6Z" transform="translate(-365.661 -305.665)" fill="#263238"/>
          </g>
        </g>
        <g id="Group_1862" data-name="Group 1862" transform="translate(0.147 0.121)">
          <g id="Group_1861" data-name="Group 1861">
            <path id="Path_1279" data-name="Path 1279" d="M374.445,305.928a1.633,1.633,0,0,1-.3.341c-.2.208-.505.5-.881.864-.751.723-1.8,1.708-2.969,2.785a1.59,1.59,0,1,1-.165,0l0,0,0,0-.007-.006-.014-.013-.027-.025-.054-.051-.109-.1-.214-.2-.419-.389-.79-.738-1.328-1.26c-.376-.361-.677-.656-.881-.864a1.633,1.633,0,0,1-.3-.341,1.687,1.687,0,0,1,.364.272c.224.187.543.463.933.808l1.363,1.222.8.728.422.386.215.2.108.1.055.05.027.025.014.013.007.006,0,0,0,0c-.072,0,.164,0-.162,0,1.169-1.077,2.237-2.043,3.017-2.733.39-.345.709-.622.933-.808A1.687,1.687,0,0,1,374.445,305.928Z" transform="translate(-365.978 -305.927)" fill="#263238"/>
          </g>
        </g>
        <g id="Group_1864" data-name="Group 1864" transform="translate(0.132 2.72)">
          <g id="Group_1863" data-name="Group 1863">
            <path id="Path_1280" data-name="Path 1280" d="M368.78,311.538a19.239,19.239,0,0,1-2.832,3.24,19.249,19.249,0,0,1,2.832-3.24Z" transform="translate(-365.946 -311.536)" fill="#263238"/>
          </g>
        </g>
        <g id="Group_1866" data-name="Group 1866" transform="translate(5.925 2.597)">
          <g id="Group_1865" data-name="Group 1865">
            <path id="Path_1281" data-name="Path 1281" d="M381.194,314.679a19.882,19.882,0,0,1-2.74-3.407,19.871,19.871,0,0,1,2.74,3.407Z" transform="translate(-378.451 -311.27)" fill="#263238"/>
          </g>
        </g>
      </g>
      <g id="Group_1876" data-name="Group 1876" transform="translate(181.976 89.827)">
        <g id="Group_1869" data-name="Group 1869" transform="translate(0 0)">
          <g id="Group_1868" data-name="Group 1868">
            <path id="Path_1282" data-name="Path 1282" d="M374.275,137.657a3.734,3.734,0,0,1-.022-.43q-.009-.449-.025-1.18c-.013-1.035-.03-2.469-.051-4.2l.1.1-8.465.024c-.027.026.227-.228.12-.12v.772q0,.384,0,.762,0,.757,0,1.488c0,.973-.005,1.907-.008,2.792l-.11-.11,6.07.054,1.751.03.473.013a.949.949,0,0,1,.172.013,5.158,5.158,0,0,1-.6.026l-1.727.03-6.142.055h-.11v-.111c0-.885-.005-1.819-.008-2.792q0-.73,0-1.488,0-.378,0-.762v-.772l.121-.121,8.465.024h.1v.1c-.021,1.759-.038,3.215-.051,4.265q-.015.718-.025,1.159A2.738,2.738,0,0,1,374.275,137.657Z" transform="translate(-365.661 -131.719)" fill="#f9f9f9"/>
          </g>
        </g>
        <g id="Group_1871" data-name="Group 1871" transform="translate(0.147 0.121)">
          <g id="Group_1870" data-name="Group 1870">
            <path id="Path_1283" data-name="Path 1283" d="M374.445,131.982a1.634,1.634,0,0,1-.3.341c-.2.208-.505.5-.881.864-.751.723-1.8,1.708-2.969,2.785a1.6,1.6,0,1,1-.165,0l0,0,0,0-.007-.006-.014-.012-.027-.025-.054-.05-.109-.1-.214-.2-.419-.389-.79-.738-1.328-1.26c-.376-.361-.677-.656-.881-.864a1.633,1.633,0,0,1-.3-.341,1.686,1.686,0,0,1,.364.272c.224.187.543.463.933.808l1.363,1.221.8.728.422.386.215.2.108.1.055.05.027.025.014.013.007.006,0,0,0,0a1.44,1.44,0,1,1-.162,0c1.169-1.077,2.237-2.043,3.017-2.733.39-.345.709-.621.933-.808A1.685,1.685,0,0,1,374.445,131.982Z" transform="translate(-365.978 -131.981)" fill="#f9f9f9"/>
          </g>
        </g>
        <g id="Group_1873" data-name="Group 1873" transform="translate(0.132 2.72)">
          <g id="Group_1872" data-name="Group 1872">
            <path id="Path_1284" data-name="Path 1284" d="M368.78,137.592a19.241,19.241,0,0,1-2.832,3.24,19.3,19.3,0,0,1,2.832-3.24Z" transform="translate(-365.946 -137.59)" fill="#f9f9f9"/>
          </g>
        </g>
        <g id="Group_1875" data-name="Group 1875" transform="translate(5.925 2.597)">
          <g id="Group_1874" data-name="Group 1874">
            <path id="Path_1285" data-name="Path 1285" d="M381.194,140.733a19.882,19.882,0,0,1-2.74-3.407,19.869,19.869,0,0,1,2.74,3.407Z" transform="translate(-378.451 -137.324)" fill="#f9f9f9"/>
          </g>
        </g>
      </g>
      <g id="Group_1877" data-name="Group 1877" transform="translate(110.356 169.741)">
        <path id="Path_1286" data-name="Path 1286" d="M217.644,311.861c0-.012.1-.009.277-.063a1.034,1.034,0,0,0,.593-.5,2.9,2.9,0,0,0,.1-1.258c-.005-.513-.011-1.09-.018-1.725s-.01-1.342-.015-2.091q0-.282,0-.573a1.7,1.7,0,0,0-.05-.553.935.935,0,0,0-.826-.635l-5.49.006a.924.924,0,0,0-.9.753c-.032.429-.01.93-.018,1.38,0,.919,0,1.806-.007,2.652q0,.633-.005,1.235a2.407,2.407,0,0,0,.028.563.939.939,0,0,0,.687.683,2.26,2.26,0,0,0,.509.03l1,.008,3.027.038.823.023a1.3,1.3,0,0,1,.287.024,1.283,1.283,0,0,1-.287.025l-.823.022-3.027.038-1,.008a2.39,2.39,0,0,1-.554-.029,1.134,1.134,0,0,1-.842-.819,2.536,2.536,0,0,1-.04-.615q0-.6-.005-1.235c0-.846,0-1.733-.007-2.652q0-.345,0-.7a5.949,5.949,0,0,1,.019-.728,1.165,1.165,0,0,1,1.141-.951l5.505.013a1.151,1.151,0,0,1,1.013.79,1.9,1.9,0,0,1,.055.619q0,.29,0,.573c-.006.749-.01,1.449-.015,2.091s-.013,1.212-.018,1.725q-.006.379-.01.708a1.142,1.142,0,0,1-.145.6,1.055,1.055,0,0,1-.662.5A.7.7,0,0,1,217.644,311.861Z" transform="translate(-211.052 -304.231)" fill="#263238"/>
      </g>
      <g id="Group_1878" data-name="Group 1878" transform="translate(104.524 71.251)">
        <path id="Path_1287" data-name="Path 1287" d="M198.507,201.1s-.008-.1-.012-.283-.006-.471-.011-.83c0-.738-.011-1.812-.019-3.19,0-2.779,0-6.785,0-11.732.022-9.907.12-23.591.26-38.7s.246-28.8.33-38.71c.032-4.947.058-8.952.076-11.731.012-1.378.02-2.451.026-3.189.006-.358.01-.634.013-.829s.012-.283.012-.283.008.1.012.283.007.471.011.829c0,.738.011,1.812.019,3.19,0,2.778,0,6.785,0,11.731-.022,9.907-.12,23.593-.26,38.711s-.246,28.791-.33,38.7c-.032,4.947-.058,8.953-.076,11.731-.012,1.378-.02,2.451-.026,3.19-.006.359-.01.634-.013.83S198.507,201.1,198.507,201.1Z" transform="translate(-198.463 -91.617)" fill="#263238"/>
      </g>
      <g id="Group_1880" data-name="Group 1880" transform="translate(125.06 111.015)">
        <g id="Group_1879" data-name="Group 1879">
          <path id="Path_1288" data-name="Path 1288" d="M273.884,177.578c0,.067-6.961.12-15.545.12s-15.547-.054-15.547-.12,6.959-.12,15.547-.12S273.884,177.512,273.884,177.578Z" transform="translate(-242.793 -177.458)" fill="#263238"/>
        </g>
      </g>
      <g id="Group_1882" data-name="Group 1882" transform="translate(125.06 114.445)">
        <g id="Group_1881" data-name="Group 1881">
          <path id="Path_1289" data-name="Path 1289" d="M293.318,184.982c0,.067-11.311.121-25.261.121s-25.263-.054-25.263-.121,11.309-.12,25.263-.12S293.318,184.916,293.318,184.982Z" transform="translate(-242.793 -184.862)" fill="#263238"/>
        </g>
      </g>
      <g id="Group_1884" data-name="Group 1884" transform="translate(125.06 151.367)">
        <g id="Group_1883" data-name="Group 1883" transform="translate(0 0)">
          <path id="Path_1290" data-name="Path 1290" d="M273.884,264.687c0,.066-6.961.12-15.545.12s-15.547-.054-15.547-.12,6.959-.121,15.547-.121S273.884,264.62,273.884,264.687Z" transform="translate(-242.793 -264.566)" fill="#263238"/>
        </g>
      </g>
      <g id="Group_1886" data-name="Group 1886" transform="translate(125.06 154.797)">
        <g id="Group_1885" data-name="Group 1885">
          <path id="Path_1291" data-name="Path 1291" d="M293.318,272.091c0,.067-11.311.12-25.261.12s-25.263-.054-25.263-.12,11.309-.12,25.263-.12S293.318,272.025,293.318,272.091Z" transform="translate(-242.793 -271.971)" fill="#263238"/>
        </g>
      </g>
      <g id="Group_1888" data-name="Group 1888" transform="translate(125.06 91.628)">
        <g id="Group_1887" data-name="Group 1887">
          <path id="Path_1292" data-name="Path 1292" d="M273.884,135.725c0,.067-6.961.12-15.545.12s-15.547-.054-15.547-.12,6.959-.12,15.547-.12S273.884,135.659,273.884,135.725Z" transform="translate(-242.793 -135.605)" fill="#263238"/>
        </g>
      </g>
      <g id="Group_1890" data-name="Group 1890" transform="translate(125.06 95.057)">
        <g id="Group_1889" data-name="Group 1889">
          <path id="Path_1293" data-name="Path 1293" d="M293.318,143.129c0,.067-11.311.121-25.261.121s-25.263-.054-25.263-.121,11.309-.12,25.263-.12S293.318,143.063,293.318,143.129Z" transform="translate(-242.793 -143.009)" fill="#263238"/>
        </g>
      </g>
      <g id="Group_1892" data-name="Group 1892" transform="translate(125.06 130.787)">
        <g id="Group_1891" data-name="Group 1891" transform="translate(0 0)">
          <path id="Path_1294" data-name="Path 1294" d="M273.884,220.259c0,.067-6.961.12-15.545.12s-15.547-.054-15.547-.12,6.959-.12,15.547-.12S273.884,220.193,273.884,220.259Z" transform="translate(-242.793 -220.139)" fill="#263238"/>
        </g>
      </g>
      <g id="Group_1894" data-name="Group 1894" transform="translate(125.06 134.217)">
        <g id="Group_1893" data-name="Group 1893">
          <path id="Path_1295" data-name="Path 1295" d="M293.318,227.663c0,.067-11.311.121-25.261.121s-25.263-.054-25.263-.121,11.309-.12,25.263-.12S293.318,227.6,293.318,227.663Z" transform="translate(-242.793 -227.543)" fill="#263238"/>
        </g>
      </g>
      <g id="Group_1896" data-name="Group 1896" transform="translate(125.06 170.512)">
        <g id="Group_1895" data-name="Group 1895">
          <path id="Path_1296" data-name="Path 1296" d="M273.884,306.016c0,.066-6.961.12-15.545.12s-15.547-.054-15.547-.12,6.959-.121,15.547-.121S273.884,305.949,273.884,306.016Z" transform="translate(-242.793 -305.895)" fill="#263238"/>
        </g>
      </g>
      <g id="Group_1898" data-name="Group 1898" transform="translate(125.06 173.942)">
        <g id="Group_1897" data-name="Group 1897">
          <path id="Path_1297" data-name="Path 1297" d="M293.318,313.42c0,.067-11.311.12-25.261.12s-25.263-.054-25.263-.12,11.309-.121,25.263-.121S293.318,313.353,293.318,313.42Z" transform="translate(-242.793 -313.299)" fill="#263238"/>
        </g>
      </g>
      <rect id="Rectangle_122" data-name="Rectangle 122" width="6.118" height="6.118" transform="translate(185.309 73.778)" fill="#e0e0e0"/>
      <rect id="Rectangle_123" data-name="Rectangle 123" width="6.118" height="6.118" transform="translate(175.347 73.778)" fill="#e0e0e0"/>
      <rect id="Rectangle_124" data-name="Rectangle 124" width="6.118" height="6.118" transform="translate(165.385 73.778)" fill="#e0e0e0"/>
      <g id="Group_1899" data-name="Group 1899" transform="translate(60.435 89.798)">
        <path id="Path_1298" data-name="Path 1298" d="M103.286,131.655l2.6,3.394,2.223-3.394Z" transform="translate(-103.286 -131.655)" fill="#263238"/>
      </g>
      <g id="Group_1900" data-name="Group 1900" transform="translate(110.356 129.171)">
        <path id="Path_1299" data-name="Path 1299" d="M217.644,224.282c0-.012.1-.009.277-.063a1.034,1.034,0,0,0,.593-.5,2.9,2.9,0,0,0,.1-1.258c-.005-.513-.011-1.09-.018-1.725s-.01-1.342-.015-2.091q0-.282,0-.574a1.7,1.7,0,0,0-.05-.553.934.934,0,0,0-.826-.635l-5.49.006a.925.925,0,0,0-.9.753c-.032.43-.01.931-.018,1.38,0,.919,0,1.806-.007,2.652q0,.633-.005,1.235a2.407,2.407,0,0,0,.028.563.937.937,0,0,0,.687.683,2.234,2.234,0,0,0,.509.031l1,.008,3.027.038.823.022a1.28,1.28,0,0,1,.287.025,1.3,1.3,0,0,1-.287.024l-.823.023-3.027.038-1,.008a2.391,2.391,0,0,1-.554-.029,1.133,1.133,0,0,1-.842-.82,2.531,2.531,0,0,1-.04-.614q0-.6-.005-1.235c0-.846,0-1.733-.007-2.652q0-.345,0-.7a5.948,5.948,0,0,1,.019-.728,1.165,1.165,0,0,1,1.141-.951l5.505.013a1.151,1.151,0,0,1,1.013.79,1.9,1.9,0,0,1,.055.619q0,.291,0,.574c-.006.749-.01,1.449-.015,2.091s-.013,1.212-.018,1.725q-.006.379-.01.708a1.142,1.142,0,0,1-.145.6,1.055,1.055,0,0,1-.662.5A.7.7,0,0,1,217.644,224.282Z" transform="translate(-211.052 -216.652)" fill="#263238"/>
      </g>
      <g id="Group_1901" data-name="Group 1901" transform="translate(113.684 90.929)">
        <path id="Path_1300" data-name="Path 1300" d="M218.776,139.006a.581.581,0,0,1,0-1.159.542.542,0,0,1,.54.583.53.53,0,0,1-.533.576Zm-.4-1.634-.115-3.276h1.03l-.115,3.276Z" transform="translate(-218.236 -134.096)" fill="#fff"/>
      </g>
    </g>
  </g>
</svg>
