<svg xmlns="http://www.w3.org/2000/svg" width="298.05" height="171.817" viewBox="0 0 298.05 171.817">
  <g id="Group_1915" data-name="Group 1915" transform="translate(-165.571 -2034.39)">
    <g id="Group_1728" data-name="Group 1728" transform="translate(123.255 1760.626)">
      <g id="Background_Complete" data-name="Background Complete" transform="translate(266.872 360.578)">
        <g id="Group_1410" data-name="Group 1410" transform="translate(0 27.153)">
          <g id="Group_1405" data-name="Group 1405" transform="translate(11.088 28.736)">
            <g id="Group_1404" data-name="Group 1404">
              <g id="Group_1403" data-name="Group 1403">
                <path id="Path_1150" data-name="Path 1150" d="M351.989,423.7c-1.044-.9-3.374-3.732-1.577-7.032.658-1.21,2.057-1.808,3.322-2.341a13.483,13.483,0,0,0,3.644-1.888c1.976-1.68,2.52-4.473,3.832-6.715a8.393,8.393,0,0,1,7.283-4.367c3.4.154,6.234,2.931,7.52,6.1s1.33,6.68,1.356,10.1c.014,1.89-.069,4.021-1.457,5.3-1.28,1.177-3.206,1.192-4.94,1.138l-18.578-.571" transform="translate(-349.752 -401.347)" fill="#f5f5f5"/>
              </g>
            </g>
          </g>
          <g id="Group_1409" data-name="Group 1409">
            <g id="Group_1408" data-name="Group 1408">
              <g id="Group_1407" data-name="Group 1407">
                <g id="Group_1406" data-name="Group 1406">
                  <path id="Path_1151" data-name="Path 1151" d="M381.728,357.6H332.872l8.8,52.477a5.859,5.859,0,0,0,4.171,4.672c.056.018.114.031.171.047.145.037.286.086.435.112a6.17,6.17,0,0,0,.993.114l.008.05.238-.037h21.776a6.134,6.134,0,0,0,1.2-.12,5.883,5.883,0,0,0,4.943-5.129l4.242-36.157.191-1.437h-.022l1.68-14.319Zm-9.217,33.474H367.5l.506-15.23h5.809Zm1.788-15.23h4.8l-1.787,15.23H373Zm-14.324,32.113-.3-13.231h7.22l-.439,13.231Zm-7.806-13.231h7.016l.3,13.231H353.2Zm.543,13.231H346.83c-.559-3.572-1.286-8.214-2.074-13.231h6.927Zm-.826-16.883-1.184-15.23h8.049l.35,15.23Zm7.7,0-.351-15.23h8.283l-.506,15.23Zm-.435-18.882-.324-14.1h9.281l-.469,14.1Zm-.485,0h-8.248l-1.1-14.1h9.02Zm-8.734,0h-8.727c-.309-1.948-.6-3.792-.866-5.451-.91-5.7-1.253-7.847-1.443-8.654h9.939Zm.284,3.652,1.184,15.23h-7.217c-.242-1.545-.488-3.108-.734-4.673-.566-3.6-1.132-7.189-1.665-10.557Zm-6.524,15.23h-4.714l-2.555-15.23h4.869C342.037,380.551,342.862,385.789,343.692,391.074Zm.574,3.652c.719,4.578,1.425,9.093,2.073,13.231h-4.53l-2.219-13.231Zm22.671,13.231.439-13.231H372.2l-1.13,13.231Zm1.188-35.765.468-14.1h6.736l-1.205,14.1Zm-29.691-14.1c.194,1.019,1.086,6.569,2.28,14.1h-4.9l-2.365-14.1Zm36.9,49.869h-3.776l1.13-13.231h4.2Zm4.2-35.765h-4.917l1.205-14.1h5.366Z" transform="translate(-332.872 -357.6)" fill="#e0e0e0"/>
                </g>
              </g>
            </g>
          </g>
        </g>
        <g id="Group_1419" data-name="Group 1419" transform="translate(6.175 0)">
          <g id="Group_1412" data-name="Group 1412" transform="translate(0.428)">
            <g id="Group_1411" data-name="Group 1411">
              <path id="Path_1152" data-name="Path 1152" d="M342.925,356.314s.18.066.512.2l1.459.6,5.532,2.31,19.92,8.379-.18.073,16.885-39.855v0l.091.225-27.363-11.634.2-.083-12.253,28.662-3.521,8.187-.946,2.179-.249.563a2.059,2.059,0,0,1-.092.194,1.525,1.525,0,0,1,.068-.184l.225-.554.9-2.165,3.43-8.186L359.7,316.408l.06-.144.145.061,27.374,11.606.158.067-.067.158v0L370.42,367.988l-.054.127-.126-.054L350.3,359.516l-5.476-2.363-1.423-.621C343.079,356.391,342.925,356.314,342.925,356.314Z" transform="translate(-342.924 -316.264)" fill="#e0e0e0"/>
            </g>
          </g>
          <g id="Group_1414" data-name="Group 1414" transform="translate(17.727 11.824)">
            <g id="Group_1413" data-name="Group 1413">
              <path id="Path_1153" data-name="Path 1153" d="M379.33,374.111a.486.486,0,0,1-.068-.137l-.166-.414q-.225-.591-.608-1.6c-.525-1.428-1.265-3.444-2.175-5.923l-7.053-19.583c.181-.43.056-.122.1-.219l.011-.005.022-.01.043-.02.087-.039.173-.078.346-.156.688-.311,1.362-.615,2.666-1.2,5.04-2.268,8.542-3.82,5.771-2.549,1.577-.677.413-.168a.518.518,0,0,1,.146-.047.5.5,0,0,1-.131.079l-.4.2-1.55.736-5.727,2.648-8.512,3.887L374.9,344.1l-2.663,1.206-1.362.617-.688.311-.346.156-.173.078-.087.039-.043.02-.022.01-.011,0c.038-.093-.1.216.082-.208,2.713,7.648,5.168,14.571,6.959,19.617l2.072,5.959q.345,1.027.547,1.626c.053.171.1.31.134.426A.54.54,0,0,1,379.33,374.111Z" transform="translate(-369.26 -334.264)" fill="#e0e0e0"/>
            </g>
          </g>
          <g id="Group_1416" data-name="Group 1416" transform="translate(17.256 0.098)">
            <g id="Group_1415" data-name="Group 1415">
              <path id="Path_1154" data-name="Path 1154" d="M378.135,336.215c-.085.041-2.3-4.359-4.948-9.826s-4.726-9.935-4.641-9.976,2.3,4.358,4.949,9.827S378.22,336.174,378.135,336.215Z" transform="translate(-368.543 -316.413)" fill="#e0e0e0"/>
            </g>
          </g>
          <g id="Group_1418" data-name="Group 1418" transform="translate(0 34.079)">
            <g id="Group_1417" data-name="Group 1417">
              <path id="Path_1155" data-name="Path 1155" d="M342.273,374.237c-.026-.091,4.769-1.528,10.708-3.209s10.776-2.971,10.8-2.88-4.768,1.527-10.709,3.209S342.3,374.328,342.273,374.237Z" transform="translate(-342.273 -368.144)" fill="#e0e0e0"/>
            </g>
          </g>
        </g>
      </g>
      <g id="Character" transform="translate(6 60.752)">
        <g id="Group_1539" data-name="Group 1539" transform="translate(36.316 213.012)">
          <g id="Group_1428" data-name="Group 1428" transform="translate(31.274)">
            <g id="Group_1425" data-name="Group 1425">
              <g id="Group_1424" data-name="Group 1424">
                <g id="Group_1423" data-name="Group 1423">
                  <g id="Group_1422" data-name="Group 1422">
                    <path id="Path_1157" data-name="Path 1157" d="M87.866,223.055c9.626-12.676,19.773-10.885,26.816-7.822a19.362,19.362,0,0,1,11.3,18.446c-.124,2.024-.556,4.156.267,6.009,1.325,2.982,5.178,3.821,7.409,6.2,3.05,3.254,2.374,8.406,1.344,12.745s-2.114,9.294.437,12.952c2.337,3.351,6.795,4.249,10.47,6.034a19.221,19.221,0,0,1,10.171,11.968,16.391,16.391,0,0,1-3.483,15.123c-3.573,3.893-8.938,5.619-14.166,6.389a52.187,52.187,0,0,1-59.724-54.274" transform="translate(-78.648 -213.012)" fill="#263238"/>
                  </g>
                </g>
              </g>
            </g>
            <g id="Group_1427" data-name="Group 1427" transform="translate(13.606 2.586)">
              <g id="Group_1426" data-name="Group 1426">
                <path id="Path_1158" data-name="Path 1158" d="M119.994,216.69a25.592,25.592,0,0,0-3.419.193,45.351,45.351,0,0,0-7.949,2.3,22.524,22.524,0,0,1-8.191,1.532,10.183,10.183,0,0,1-2.506-.412,3.452,3.452,0,0,1-.864-.343,16.757,16.757,0,0,0,3.379.483,24.205,24.205,0,0,0,8.058-1.625,39.081,39.081,0,0,1,8.037-2.207,12.938,12.938,0,0,1,2.535-.066A3.577,3.577,0,0,1,119.994,216.69Z" transform="translate(-97.065 -216.512)" fill="#455a64"/>
              </g>
            </g>
          </g>
          <g id="Group_1429" data-name="Group 1429" transform="translate(73.49 103.6)">
            <path id="Path_1159" data-name="Path 1159" d="M152.241,353.243c.369,1.105,8.032,37.306,8.032,37.306l58.281,22.409-3.28,8.5L165.3,417.067h0c-29.162-4.353-30.786-18.665-29.023-34.661l3.021-27.415Z" transform="translate(-135.791 -353.243)" fill="#ffbe9d"/>
          </g>
          <g id="Group_1464" data-name="Group 1464" transform="translate(0 62.321)">
            <g id="Group_1440" data-name="Group 1440" transform="translate(6.171 4.516)">
              <g id="Group_1430" data-name="Group 1430">
                <path id="Path_1160" data-name="Path 1160" d="M44.669,320.723c6.008-9.094,15.124-14.337,23.471-17.242L98.8,305.668a23.394,23.394,0,0,1,18.677,6.888l2.85,75.976,7.04,19.929H54.428l-9.759-87.739" transform="translate(-44.669 -303.481)" fill="#e8505b"/>
              </g>
              <g id="Group_1432" data-name="Group 1432" transform="translate(27.81 35.523)">
                <g id="Group_1431" data-name="Group 1431">
                  <path id="Path_1161" data-name="Path 1161" d="M128.43,356.311a.851.851,0,0,1-.177-.117l-.493-.372c-.22-.157-.468-.387-.8-.6l-1.149-.74c-.455-.238-.956-.513-1.515-.791-.583-.225-1.184-.55-1.887-.751a19.24,19.24,0,0,0-4.829-1.013,20.038,20.038,0,0,0-5.955.369,18.2,18.2,0,0,0-6.286,2.644,13.214,13.214,0,0,0-4.946,5.564,7.929,7.929,0,0,0-.673,3.853,7.235,7.235,0,0,0,1.457,3.729,5.137,5.137,0,0,0,3.37,2,3.254,3.254,0,0,0,3.317-1.425,4.309,4.309,0,0,0,.058-3.621,6.953,6.953,0,0,0-.871-1.621,9.021,9.021,0,0,0-1.227-1.333,13.264,13.264,0,0,0-6.051-3.024,18.638,18.638,0,0,0-5.952-.333,39.3,39.3,0,0,0-8.463,1.991l-2.25.761-.587.194a.835.835,0,0,1-.2.053.877.877,0,0,1,.191-.09l.574-.23c.507-.2,1.255-.482,2.228-.83a37.521,37.521,0,0,1,8.484-2.12,18.745,18.745,0,0,1,6.05.292,13.536,13.536,0,0,1,6.218,3.073,7.856,7.856,0,0,1,.667.655,6.506,6.506,0,0,1,.614.728,7.294,7.294,0,0,1,.923,1.7,4.663,4.663,0,0,1-.078,3.941,3.192,3.192,0,0,1-1.588,1.363,4.257,4.257,0,0,1-2.1.251,5.513,5.513,0,0,1-3.625-2.14,7.6,7.6,0,0,1-1.536-3.932,8.3,8.3,0,0,1,.708-4.039,13.529,13.529,0,0,1,5.095-5.709,18.407,18.407,0,0,1,6.416-2.661,20.133,20.133,0,0,1,6.046-.328,19.155,19.155,0,0,1,4.877,1.082,20.36,20.36,0,0,1,1.895.788c.559.29,1.059.578,1.512.828l1.138.775c.331.222.573.462.786.63l.47.4A.838.838,0,0,1,128.43,356.311Z" transform="translate(-82.312 -351.564)" fill="#fafafa"/>
                </g>
              </g>
              <g id="Group_1433" data-name="Group 1433" transform="translate(70.828 9.075)">
                <path id="Path_1162" data-name="Path 1162" d="M142.522,315.765l18.1,32.543-20.078,6.17Z" transform="translate(-140.54 -315.765)" fill="#e8505b"/>
              </g>
              <g id="Group_1435" data-name="Group 1435" transform="translate(73.678 29.199)">
                <g id="Group_1434" data-name="Group 1434">
                  <path id="Path_1163" data-name="Path 1163" d="M145.961,399.1a3.106,3.106,0,0,1-.06-.568c-.024-.41-.056-.953-.1-1.633-.066-1.46-.16-3.5-.275-6.007-.211-5.074-.468-12.083-.691-19.828s-.372-14.761-.418-19.839c-.021-2.539-.03-4.594-.01-6.014.012-.68.021-1.224.028-1.635a3.116,3.116,0,0,1,.036-.57,3.255,3.255,0,0,1,.041.57l.044,1.634c.032,1.461.077,3.5.132,6.011.137,5.111.324,12.1.53,19.832.226,7.725.43,14.719.579,19.83.064,2.507.115,4.551.152,6.011.01.68.018,1.224.024,1.635A3.243,3.243,0,0,1,145.961,399.1Z" transform="translate(-144.399 -343.005)" fill="#263238"/>
                </g>
              </g>
              <g id="Group_1437" data-name="Group 1437" transform="translate(49.008 11.955)">
                <g id="Group_1436" data-name="Group 1436">
                  <path id="Path_1164" data-name="Path 1164" d="M140.149,326.7a2.427,2.427,0,0,1-.415.288,10.894,10.894,0,0,1-1.275.7,13.418,13.418,0,0,1-12.748-1.071,8.5,8.5,0,0,1-1.768-1.5,4.357,4.357,0,0,1-1.089-2.194,2.983,2.983,0,0,1,.652-2.462,2.647,2.647,0,0,1,2.512-.725,3.237,3.237,0,0,1,2.162,1.481,3.719,3.719,0,0,1,.392,2.513,4.974,4.974,0,0,1-1.025,2.221,5.983,5.983,0,0,1-1.817,1.469,11.338,11.338,0,0,1-4.1,1.153,18.638,18.638,0,0,1-3.7.043,18.017,18.017,0,0,1-5.181-1.25,13.931,13.931,0,0,1-1.316-.609,2.476,2.476,0,0,1-.436-.257,2.512,2.512,0,0,1,.469.187c.3.133.749.326,1.336.539a19.043,19.043,0,0,0,5.149,1.118,18.738,18.738,0,0,0,3.636-.088,11.117,11.117,0,0,0,3.963-1.147,5.645,5.645,0,0,0,1.7-1.387,4.628,4.628,0,0,0,.94-2.057,3.342,3.342,0,0,0-.35-2.254,2.861,2.861,0,0,0-1.907-1.3,2.266,2.266,0,0,0-2.154.6,2.612,2.612,0,0,0-.562,2.149,4,4,0,0,0,.993,2.009,8.2,8.2,0,0,0,1.69,1.448,13.009,13.009,0,0,0,7.344,2.22,13.526,13.526,0,0,0,5.145-.993C139.548,327.05,140.126,326.655,140.149,326.7Z" transform="translate(-111.006 -319.664)" fill="#fafafa"/>
                </g>
              </g>
              <g id="Group_1439" data-name="Group 1439" transform="translate(8.502 80.178)">
                <g id="Group_1438" data-name="Group 1438">
                  <path id="Path_1165" data-name="Path 1165" d="M121.969,416.484a1.307,1.307,0,0,1-.209-.137l-.592-.431a20.551,20.551,0,0,0-2.411-1.437,21.5,21.5,0,0,0-9.974-2.2,30.182,30.182,0,0,0-14.49,4.343,21.254,21.254,0,0,0-3.578,2.555,12.257,12.257,0,0,0-2.822,3.551,7.006,7.006,0,0,0-.668,4.529,4.013,4.013,0,0,0,1.133,2.009,2.215,2.215,0,0,0,2.128.521,3.028,3.028,0,0,0,1.707-1.51,5.128,5.128,0,0,0,.618-2.261,7.9,7.9,0,0,0-1.409-4.395,10.8,10.8,0,0,0-3.268-3.124,12.707,12.707,0,0,0-4.059-1.59,23.46,23.46,0,0,0-8.112-.076A48.849,48.849,0,0,0,69,418.356a50.12,50.12,0,0,0-9.535,3.952c-1.071.587-1.888,1.07-2.438,1.405l-.626.38a1.212,1.212,0,0,1-.221.119,1.188,1.188,0,0,1,.2-.151l.607-.413c.537-.357,1.343-.862,2.407-1.471a47.9,47.9,0,0,1,16.527-5.655,23.63,23.63,0,0,1,8.231.045,13.006,13.006,0,0,1,4.178,1.625,11.14,11.14,0,0,1,3.388,3.225,8.262,8.262,0,0,1,1.478,4.616,5.507,5.507,0,0,1-.664,2.436,3.4,3.4,0,0,1-1.935,1.693,2.6,2.6,0,0,1-2.493-.6,4.385,4.385,0,0,1-1.249-2.2,7.358,7.358,0,0,1,.7-4.788,12.6,12.6,0,0,1,2.914-3.658,21.482,21.482,0,0,1,3.647-2.589,30.237,30.237,0,0,1,14.664-4.309,21.286,21.286,0,0,1,10.045,2.336A14.3,14.3,0,0,1,121.969,416.484Z" transform="translate(-56.177 -412.009)" fill="#fafafa"/>
                </g>
              </g>
            </g>
            <g id="Group_1461" data-name="Group 1461" transform="translate(0 10.523)">
              <g id="Group_1448" data-name="Group 1448" transform="translate(0.877)">
                <g id="Group_1446" data-name="Group 1446" transform="translate(5.554 10.895)">
                  <g id="Group_1441" data-name="Group 1441">
                    <path id="Path_1166" data-name="Path 1166" d="M67.009,335.106c-2.21-11.356-18.286-11.775-21.1-.555q-.065.258-.127.524C41.64,352.755,55.637,405,59.4,408.006s7.488,6.431,13.919,3.762c3.758-1.56,42.806-36.066,42.806-36.066s9.029,8.652,12.038,7.9,8.767-9.63,8.767-9.63,5.579,8.373,6.28,8.5a2.1,2.1,0,0,0,2.257-3.009c-.752-1.129-7.864-16.7-7.864-16.7s5.607-.607,4.478-2.488c0,0-.14-1.729-3.93-1.395s-3.789-4.012-10.811-3.567-21.622,2.229-42.129,17.943l-9.473,6.687Z" transform="translate(-45.021 -326.359)" fill="#ffbe9d"/>
                  </g>
                  <g id="Group_1443" data-name="Group 1443" transform="translate(28.296 28.769)">
                    <g id="Group_1442" data-name="Group 1442">
                      <path id="Path_1167" data-name="Path 1167" d="M95.216,383.433s.076-.069.233-.191l.708-.542,2.765-2.077a109.7,109.7,0,0,1,10.979-6.916,72.272,72.272,0,0,1,18.485-7.133c1.862-.394,3.792-.752,5.795-.971q1.5-.166,3.046-.272a13.16,13.16,0,0,1,3.156.14,8.367,8.367,0,0,1,3.023,1.172c.938.572,1.726,1.365,2.674,1.845a3.575,3.575,0,0,0,1.519.4c.521.013,1.1-.07,1.673-.047a5.313,5.313,0,0,1,1.721.291,1.838,1.838,0,0,1,1.274,1.305l-.025-.078a1.054,1.054,0,0,1,.148.8,1.31,1.31,0,0,1-.465.66,4.448,4.448,0,0,1-1.343.674,15.382,15.382,0,0,1-2.954.631l.149-.261,5.013,10.84c.875,1.848,1.746,3.749,2.7,5.588a3.247,3.247,0,0,1,.36.757,2.264,2.264,0,0,1,.021.863,2.463,2.463,0,0,1-.838,1.461,2.142,2.142,0,0,1-1.622.49l-.214-.023a.562.562,0,0,1-.157-.058c-.042-.026-.067-.049-.1-.074a2.9,2.9,0,0,1-.309-.3c-.185-.2-.359-.409-.527-.62-1.925-2.469-3.633-5.024-5.333-7.538h.32a63.874,63.874,0,0,1-4.345,5.866,23.807,23.807,0,0,1-2.489,2.593c-.23.193-.471.374-.706.56a8.92,8.92,0,0,1-.781.47,2.842,2.842,0,0,1-.907.267,3.268,3.268,0,0,1-.918-.118,11.954,11.954,0,0,1-3.146-1.547c-.969-.625-1.886-1.3-2.775-2-1.775-1.395-3.44-2.85-5.019-4.34l.239,0c-12.381,10.893-22.986,20.037-30.565,26.374-3.791,3.168-6.826,5.633-8.953,7.256-1.062.814-1.9,1.415-2.482,1.792a4.884,4.884,0,0,1-.922.512c-.009-.02.324-.159.89-.56s1.4-1.006,2.445-1.834c2.1-1.65,5.115-4.139,8.885-7.329,7.538-6.382,18.11-15.562,30.469-26.476l.12-.106.119.112c1.569,1.475,3.235,2.926,5,4.308.884.689,1.794,1.359,2.75,1.974a11.686,11.686,0,0,0,3.04,1.5c1.1.413,2.1-.374,2.975-1.1a23.639,23.639,0,0,0,2.445-2.553,63.641,63.641,0,0,0,4.312-5.83l.16-.24.161.238c1.694,2.5,3.409,5.068,5.313,7.508.165.207.335.409.51.6a2.678,2.678,0,0,0,.265.257l.058.044.007,0c0-.013-.005.024-.01.069.007-.031-.02.113.015-.062h.017l.182.019a1.754,1.754,0,0,0,1.342-.4,1.9,1.9,0,0,0,.37-2.595c-.981-1.882-1.838-3.76-2.716-5.617l-5.006-10.848-.106-.23.255-.032a15.125,15.125,0,0,0,2.875-.609,4.125,4.125,0,0,0,1.23-.611.959.959,0,0,0,.343-.465.7.7,0,0,0-.106-.524l-.016-.027-.01-.052a1.527,1.527,0,0,0-1.042-1,4.963,4.963,0,0,0-1.6-.27c-.552-.024-1.086.057-1.679.044a3.935,3.935,0,0,1-1.663-.44c-1.022-.525-1.794-1.317-2.7-1.867a8.016,8.016,0,0,0-2.9-1.131,22.82,22.82,0,0,0-6.1.12c-1.992.214-3.912.564-5.765.95a72.708,72.708,0,0,0-18.444,7.03,115.746,115.746,0,0,0-11.017,6.816l-2.8,2.028-.725.517C95.3,383.381,95.216,383.433,95.216,383.433Z" transform="translate(-83.323 -365.301)" fill="#eb996e"/>
                    </g>
                  </g>
                  <g id="Group_1445" data-name="Group 1445" transform="translate(26.838 52.854)">
                    <g id="Group_1444" data-name="Group 1444">
                      <path id="Path_1168" data-name="Path 1168" d="M81.717,411.347a1.654,1.654,0,0,1-.152-.551,10.842,10.842,0,0,1-.189-1.542,15.72,15.72,0,0,1,2.716-9.737,10.827,10.827,0,0,1,.96-1.222c.249-.27.4-.409.415-.392.051.043-.466.664-1.147,1.763a17.793,17.793,0,0,0-2.672,9.579C81.662,410.537,81.783,411.336,81.717,411.347Z" transform="translate(-81.348 -397.901)" fill="#eb996e"/>
                    </g>
                  </g>
                </g>
                <g id="Group_1447" data-name="Group 1447">
                  <path id="Path_1169" data-name="Path 1169" d="M54.091,311.612c-.358.24-13.361,4.128-15.4,17.459s-.819,36.535-.819,36.535l35.271-2.423L63.029,316.309Z" transform="translate(-37.503 -311.612)" fill="#e8505b"/>
                </g>
              </g>
              <g id="Group_1450" data-name="Group 1450" transform="translate(88.869 59.51)">
                <g id="Group_1449" data-name="Group 1449">
                  <path id="Path_1170" data-name="Path 1170" d="M160.18,398.948a11.5,11.5,0,0,1,.015-1.211,6.357,6.357,0,0,0-2.579-4.894,11.4,11.4,0,0,1-1.007-.672,2.413,2.413,0,0,1,1.158.445,5.772,5.772,0,0,1,2.7,5.123A2.42,2.42,0,0,1,160.18,398.948Z" transform="translate(-156.608 -392.164)" fill="#eb996e"/>
                </g>
              </g>
              <g id="Group_1452" data-name="Group 1452" transform="translate(92.072 56.687)">
                <g id="Group_1451" data-name="Group 1451">
                  <path id="Path_1171" data-name="Path 1171" d="M164.552,394a8.174,8.174,0,0,0-3.607-5.645,2.062,2.062,0,0,1,.957.425,6.105,6.105,0,0,1,2.666,4.173A2.069,2.069,0,0,1,164.552,394Z" transform="translate(-160.943 -388.343)" fill="#eb996e"/>
                </g>
              </g>
              <g id="Group_1454" data-name="Group 1454" transform="translate(95.677 53.915)">
                <g id="Group_1453" data-name="Group 1453">
                  <path id="Path_1172" data-name="Path 1172" d="M165.827,384.6c.027-.038.332.109.737.471a5.237,5.237,0,0,1,1.677,3.783c0,.544-.1.868-.146.862a7.741,7.741,0,0,0-2.267-5.116Z" transform="translate(-165.823 -384.591)" fill="#eb996e"/>
                </g>
              </g>
              <g id="Group_1456" data-name="Group 1456" transform="translate(0 29.079)">
                <g id="Group_1455" data-name="Group 1455">
                  <path id="Path_1173" data-name="Path 1173" d="M68.531,351.341a.651.651,0,0,1-.185-.007l-.533-.06a18.821,18.821,0,0,0-2.053-.14,19.6,19.6,0,0,0-7.38,1.368,18.684,18.684,0,0,0-8.62,6.837,10.094,10.094,0,0,0-1.9,6.13,6.866,6.866,0,0,0,1.03,3.228,5.015,5.015,0,0,0,2.679,2.126,4.737,4.737,0,0,0,3.4-.163,3.849,3.849,0,0,0,2.069-2.5,6.2,6.2,0,0,0-.129-3.254,9.228,9.228,0,0,0-1.409-2.847,14.1,14.1,0,0,0-9.34-5.523,14.279,14.279,0,0,0-7.384.993,16.086,16.086,0,0,0-1.839.92l-.458.278a.7.7,0,0,1-.164.085,10.568,10.568,0,0,1,2.4-1.421,14.139,14.139,0,0,1,7.479-1.124,14.3,14.3,0,0,1,9.59,5.581,9.554,9.554,0,0,1,1.477,2.957,6.555,6.555,0,0,1,.14,3.454,4.225,4.225,0,0,1-2.27,2.751,5.106,5.106,0,0,1-3.678.182,5.387,5.387,0,0,1-2.883-2.286,7.223,7.223,0,0,1-1.084-3.409,10.418,10.418,0,0,1,1.978-6.353,18.805,18.805,0,0,1,8.816-6.894,19.141,19.141,0,0,1,7.484-1.264A13.763,13.763,0,0,1,68.531,351.341Z" transform="translate(-36.316 -350.973)" fill="#fafafa"/>
                </g>
              </g>
              <g id="Group_1458" data-name="Group 1458" transform="translate(7.706 6.126)">
                <g id="Group_1457" data-name="Group 1457">
                  <path id="Path_1174" data-name="Path 1174" d="M70.046,324.094a4.845,4.845,0,0,1-.893.412,8.8,8.8,0,0,1-1.087.392,14.426,14.426,0,0,1-1.475.411,16.1,16.1,0,0,1-1.826.343,21.132,21.132,0,0,1-2.125.2,22.228,22.228,0,0,1-9.563-1.718,21.208,21.208,0,0,1-1.922-.929,16.187,16.187,0,0,1-1.593-.957,14.281,14.281,0,0,1-1.24-.9,8.608,8.608,0,0,1-.881-.745,4.774,4.774,0,0,1-.694-.7c.055-.063,1.063.918,2.963,2.114a17.364,17.364,0,0,0,1.594.9c.576.322,1.229.586,1.908.884a23.2,23.2,0,0,0,9.415,1.692c.739-.043,1.444-.063,2.1-.165a17.363,17.363,0,0,0,1.81-.293C68.73,324.583,70.018,324.015,70.046,324.094Z" transform="translate(-46.747 -319.904)" fill="#fafafa"/>
                </g>
              </g>
              <g id="Group_1460" data-name="Group 1460" transform="translate(1.241 32.913)">
                <g id="Group_1459" data-name="Group 1459">
                  <path id="Path_1175" data-name="Path 1175" d="M70.674,356.163a1.525,1.525,0,0,1,.081.352c.044.267.1.607.173,1.029.144.941.343,2.244.59,3.863.482,3.347,1.152,7.994,1.93,13.386l.028.2-.2.013-8.237.576-19.12,1.257-5.8.337-1.577.072a2.935,2.935,0,0,1-.552,0,2.978,2.978,0,0,1,.547-.077l1.572-.144,5.788-.459,19.112-1.37,8.239-.557-.168.209-1.794-13.405c-.2-1.626-.367-2.934-.485-3.879-.047-.426-.085-.768-.115-1.037A1.634,1.634,0,0,1,70.674,356.163Z" transform="translate(-37.996 -356.163)" fill="#263238"/>
                </g>
              </g>
            </g>
            <g id="Group_1463" data-name="Group 1463" transform="translate(16.744)" opacity="0.2">
              <g id="Group_1462" data-name="Group 1462">
                <path id="Path_1176" data-name="Path 1176" d="M59.054,307.522c-.351,1.244.632,2.414,1.276,3.535,1.241,2.159,1.309,4.77,1.421,7.258a50.42,50.42,0,0,0,2.091,13.475,23.208,23.208,0,0,0,7.46,11.225,15.184,15.184,0,0,0,12.858,3.009c4.412-1.15,8.142-5.055,8.5-9.6.354-4.506-2.363-8.593-3.93-12.832a68.509,68.509,0,0,1-2.443-10.157,30.341,30.341,0,0,0-3.394-9.835,12.568,12.568,0,0,0-8.114-6.1c-3.429-.626-7.347,1-8.735,4.193" transform="translate(-58.98 -297.368)"/>
              </g>
            </g>
          </g>
          <g id="Group_1535" data-name="Group 1535" transform="translate(15.191 6.27)">
            <g id="Group_1530" data-name="Group 1530" transform="translate(18.414 4.299)">
              <g id="Group_1529" data-name="Group 1529">
                <g id="Group_1518" data-name="Group 1518">
                  <g id="Group_1517" data-name="Group 1517">
                    <g id="Group_1516" data-name="Group 1516">
                      <g id="Group_1469" data-name="Group 1469">
                        <g id="Group_1468" data-name="Group 1468">
                          <g id="Group_1467" data-name="Group 1467">
                            <g id="Group_1466" data-name="Group 1466">
                              <g id="Group_1465" data-name="Group 1465">
                                <path id="Path_1177" data-name="Path 1177" d="M82.051,229.57l.007,3.929L81.8,292.312c-.03,6.828,5.817,12.291,13.128,12.267h0c7.383-.024,13.48-5.631,13.624-12.527.151-7.239.443-14.857.443-14.857s9.354-1.383,11.5-13.516c1.068-6.034.94-15.961.574-24.08a12.851,12.851,0,0,0-13.959-12.23Z" transform="translate(-81.803 -227.318)" fill="#ffbe9d"/>
                              </g>
                            </g>
                          </g>
                        </g>
                      </g>
                      <g id="Group_1481" data-name="Group 1481" transform="translate(30.861 15.708)">
                        <g id="Group_1474" data-name="Group 1474" transform="translate(2.434 2.537)">
                          <g id="Group_1473" data-name="Group 1473">
                            <g id="Group_1472" data-name="Group 1472">
                              <g id="Group_1471" data-name="Group 1471">
                                <g id="Group_1470" data-name="Group 1470">
                                  <path id="Path_1178" data-name="Path 1178" d="M129.986,253.452A1.562,1.562,0,0,1,128.453,255a1.492,1.492,0,0,1-1.583-1.435,1.561,1.561,0,0,1,1.531-1.548A1.494,1.494,0,0,1,129.986,253.452Z" transform="translate(-126.87 -252.015)" fill="#263238"/>
                                </g>
                              </g>
                            </g>
                          </g>
                        </g>
                        <g id="Group_1480" data-name="Group 1480">
                          <g id="Group_1479" data-name="Group 1479">
                            <g id="Group_1478" data-name="Group 1478">
                              <g id="Group_1477" data-name="Group 1477">
                                <g id="Group_1476" data-name="Group 1476">
                                  <g id="Group_1475" data-name="Group 1475">
                                    <path id="Path_1179" data-name="Path 1179" d="M129.741,250.276c-.2.2-1.364-.7-3.043-.721-1.677-.05-2.925.793-3.1.584-.088-.092.115-.457.659-.838a4.288,4.288,0,0,1,2.489-.719,4.116,4.116,0,0,1,2.417.828C129.669,249.815,129.838,250.186,129.741,250.276Z" transform="translate(-123.575 -248.581)" fill="#263238"/>
                                  </g>
                                </g>
                              </g>
                            </g>
                          </g>
                        </g>
                      </g>
                      <g id="Group_1493" data-name="Group 1493" transform="translate(14.348 15.728)">
                        <g id="Group_1486" data-name="Group 1486" transform="translate(3.04 2.234)">
                          <g id="Group_1485" data-name="Group 1485">
                            <g id="Group_1484" data-name="Group 1484">
                              <g id="Group_1483" data-name="Group 1483">
                                <g id="Group_1482" data-name="Group 1482">
                                  <path id="Path_1180" data-name="Path 1180" d="M108.456,253.07a1.56,1.56,0,0,1-1.533,1.547,1.492,1.492,0,0,1-1.583-1.435,1.561,1.561,0,0,1,1.531-1.548A1.5,1.5,0,0,1,108.456,253.07Z" transform="translate(-105.34 -251.632)" fill="#263238"/>
                                </g>
                              </g>
                            </g>
                          </g>
                        </g>
                        <g id="Group_1492" data-name="Group 1492">
                          <g id="Group_1491" data-name="Group 1491">
                            <g id="Group_1490" data-name="Group 1490">
                              <g id="Group_1489" data-name="Group 1489">
                                <g id="Group_1488" data-name="Group 1488">
                                  <g id="Group_1487" data-name="Group 1487">
                                    <path id="Path_1181" data-name="Path 1181" d="M107.391,250.3c-.2.2-1.366-.7-3.044-.722-1.677-.049-2.925.793-3.1.584-.087-.092.115-.456.66-.837a4.276,4.276,0,0,1,2.488-.72,4.117,4.117,0,0,1,2.418.828C107.318,249.842,107.487,250.214,107.391,250.3Z" transform="translate(-101.225 -248.608)" fill="#263238"/>
                                  </g>
                                </g>
                              </g>
                            </g>
                          </g>
                        </g>
                      </g>
                      <g id="Group_1499" data-name="Group 1499" transform="translate(25.849 15.98)">
                        <g id="Group_1498" data-name="Group 1498">
                          <g id="Group_1497" data-name="Group 1497">
                            <g id="Group_1496" data-name="Group 1496">
                              <g id="Group_1495" data-name="Group 1495">
                                <g id="Group_1494" data-name="Group 1494">
                                  <path id="Path_1182" data-name="Path 1182" d="M117.33,262.953a11.139,11.139,0,0,1,2.736-.443c.429-.037.836-.115.914-.406a2.18,2.18,0,0,0-.264-1.276q-.576-1.567-1.21-3.288c-1.679-4.68-2.885-8.525-2.7-8.591s1.7,3.674,3.381,8.354q.605,1.731,1.156,3.306a2.485,2.485,0,0,1,.193,1.687,1.076,1.076,0,0,1-.717.615,2.939,2.939,0,0,1-.73.089A10.885,10.885,0,0,1,117.33,262.953Z" transform="translate(-116.792 -248.948)" fill="#263238"/>
                                </g>
                              </g>
                            </g>
                          </g>
                        </g>
                      </g>
                      <g id="Group_1504" data-name="Group 1504" transform="translate(10.976 45.24)">
                        <g id="Group_1503" data-name="Group 1503">
                          <g id="Group_1502" data-name="Group 1502">
                            <g id="Group_1501" data-name="Group 1501">
                              <g id="Group_1500" data-name="Group 1500">
                                <path id="Path_1183" data-name="Path 1183" d="M112.878,293.191a30.963,30.963,0,0,1-16.218-4.637s3.805,8.429,16,7.507Z" transform="translate(-96.66 -288.554)" fill="#eb996e"/>
                              </g>
                            </g>
                          </g>
                        </g>
                      </g>
                      <g id="Group_1509" data-name="Group 1509" transform="translate(20.578 32.835)">
                        <g id="Group_1508" data-name="Group 1508">
                          <g id="Group_1507" data-name="Group 1507">
                            <g id="Group_1506" data-name="Group 1506">
                              <g id="Group_1505" data-name="Group 1505">
                                <path id="Path_1184" data-name="Path 1184" d="M114.684,272.947a3.025,3.025,0,0,0-2.692-1.172,2.76,2.76,0,0,0-1.926.989,1.751,1.751,0,0,0-.168,2,2.031,2.031,0,0,0,2.191.6,6.347,6.347,0,0,0,2.169-1.243,1.86,1.86,0,0,0,.488-.488.562.562,0,0,0,.009-.625" transform="translate(-109.657 -271.763)" fill="#eb996e"/>
                              </g>
                            </g>
                          </g>
                        </g>
                      </g>
                      <g id="Group_1515" data-name="Group 1515" transform="translate(21.136 31.059)">
                        <g id="Group_1514" data-name="Group 1514">
                          <g id="Group_1513" data-name="Group 1513">
                            <g id="Group_1512" data-name="Group 1512">
                              <g id="Group_1511" data-name="Group 1511">
                                <g id="Group_1510" data-name="Group 1510">
                                  <path id="Path_1185" data-name="Path 1185" d="M110.7,269.359c.273-.011.245,1.811,1.781,3.133s3.481,1.155,3.491,1.41c.024.115-.439.346-1.259.354a4.54,4.54,0,0,1-2.916-1.074,3.955,3.955,0,0,1-1.377-2.625C110.366,269.794,110.577,269.346,110.7,269.359Z" transform="translate(-110.412 -269.359)" fill="#263238"/>
                                </g>
                              </g>
                            </g>
                          </g>
                        </g>
                      </g>
                    </g>
                  </g>
                </g>
                <g id="Group_1523" data-name="Group 1523" transform="translate(13.389 9.533)">
                  <g id="Group_1522" data-name="Group 1522">
                    <g id="Group_1521" data-name="Group 1521">
                      <g id="Group_1520" data-name="Group 1520">
                        <g id="Group_1519" data-name="Group 1519">
                          <path id="Path_1186" data-name="Path 1186" d="M107.6,241.54c-.174.454-1.847.207-3.821.409-1.978.163-3.577.711-3.831.3-.113-.2.171-.622.822-1.053a6.681,6.681,0,0,1,5.83-.539C107.32,240.959,107.677,241.324,107.6,241.54Z" transform="translate(-99.926 -240.222)" fill="#263238"/>
                        </g>
                      </g>
                    </g>
                  </g>
                </g>
                <g id="Group_1528" data-name="Group 1528" transform="translate(30.783 10.741)">
                  <g id="Group_1527" data-name="Group 1527">
                    <g id="Group_1526" data-name="Group 1526">
                      <g id="Group_1525" data-name="Group 1525">
                        <g id="Group_1524" data-name="Group 1524">
                          <path id="Path_1187" data-name="Path 1187" d="M129.182,243.649c-.3.376-1.452-.04-2.842-.083-1.389-.092-2.574.211-2.838-.193-.115-.2.077-.575.6-.926a4.119,4.119,0,0,1,4.577.223C129.162,243.069,129.316,243.465,129.182,243.649Z" transform="translate(-123.47 -241.857)" fill="#263238"/>
                        </g>
                      </g>
                    </g>
                  </g>
                </g>
              </g>
            </g>
            <g id="Group_1534" data-name="Group 1534">
              <g id="Group_1531" data-name="Group 1531">
                <path id="Path_1188" data-name="Path 1188" d="M90.8,224.049c3.291,4.29-.032,10.443-3.737,14.38s-8.226,8.513-7.152,13.813c1.246,6.144,9.7,10.006,8.514,16.162-.435,2.247-2.185,4.176-2.171,6.465.026,4.13,5.39,6.085,6.966,9.9C95.38,290,89.634,295.3,89.6,300.961c-.018,3.214,1.831,6.195,1.959,9.407.264,6.58-7.473,11.474-13.873,9.918S66.856,312.543,65.4,306.119s-.492-13.117.474-19.632c-.609,2.78-4.821,3.338-6.9,1.395s-2.358-5.157-1.922-7.97c1.095-7.05,5.663-13.056,7.8-19.864,1.867-5.95,1.817-12.3,2.6-18.492s2.633-12.646,7.312-16.77,12.843-4.7,16.708.189" transform="translate(-56.878 -221.499)" fill="#263238"/>
              </g>
              <g id="Group_1533" data-name="Group 1533" transform="translate(10.057 0.867)">
                <g id="Group_1532" data-name="Group 1532">
                  <path id="Path_1189" data-name="Path 1189" d="M77.675,318.244a1.621,1.621,0,0,1,.15-.243l.466-.693a15.714,15.714,0,0,0,2.4-7.813,15.052,15.052,0,0,0-1.2-6.524,32.326,32.326,0,0,0-4.477-6.768A35.027,35.027,0,0,1,72.4,292.45a14.919,14.919,0,0,1-1.726-4.546,8.946,8.946,0,0,1,.411-5.089,7.259,7.259,0,0,1,1.5-2.21,16.982,16.982,0,0,1,2.086-1.712,10.985,10.985,0,0,0,3.8-3.746,7.88,7.88,0,0,0,.336-5.387c-.884-3.709-3.458-6.573-5.1-9.79a12.414,12.414,0,0,1-1.533-5.1,11.231,11.231,0,0,1,.958-5.021,21.9,21.9,0,0,1,5.727-7.428c2.192-1.97,4.357-3.648,6.135-5.392a19.394,19.394,0,0,0,4.051-5.3,12.739,12.739,0,0,0,1.384-4.827,8.78,8.78,0,0,0-.318-3.163c-.2-.7-.378-1.052-.352-1.062a5.984,5.984,0,0,1,.427,1.039,8.538,8.538,0,0,1,.392,3.2,12.723,12.723,0,0,1-1.341,4.913,19.442,19.442,0,0,1-4.054,5.4c-1.78,1.77-3.942,3.466-6.11,5.434a21.678,21.678,0,0,0-5.616,7.332,10.888,10.888,0,0,0-.917,4.861,12.06,12.06,0,0,0,1.5,4.951c.822,1.583,1.854,3.094,2.829,4.681a18.1,18.1,0,0,1,2.315,5.19,8.248,8.248,0,0,1-.367,5.649A11.3,11.3,0,0,1,74.9,279.2a16.712,16.712,0,0,0-2.043,1.67,6.893,6.893,0,0,0-1.432,2.092,8.6,8.6,0,0,0-.4,4.88,14.606,14.606,0,0,0,1.671,4.444,34.978,34.978,0,0,0,2.571,3.727,32.255,32.255,0,0,1,4.473,6.854A15.172,15.172,0,0,1,80.9,309.5a15.891,15.891,0,0,1-1.055,4.988,15.009,15.009,0,0,1-1.492,2.858c-.209.3-.386.523-.5.674A1.544,1.544,0,0,1,77.675,318.244Z" transform="translate(-70.491 -222.673)" fill="#455a64"/>
                </g>
              </g>
            </g>
          </g>
          <g id="Group_1538" data-name="Group 1538" transform="translate(55.378 115.171)">
            <g id="Group_1536" data-name="Group 1536">
              <path id="Path_1190" data-name="Path 1190" d="M178.921,370.38l-28,48.891-39.647,1.373v4.365h115.83l31.522-51.642a2.932,2.932,0,0,0-2.5-4.461H181.466A2.931,2.931,0,0,0,178.921,370.38Z" transform="translate(-111.275 -368.905)" fill="#263238"/>
            </g>
            <g id="Group_1537" data-name="Group 1537" transform="translate(95.57 20.451)">
              <path id="Path_1191" data-name="Path 1191" d="M247.784,403.712c-1.758,2.735-4.465,4.128-6.047,3.111s-1.44-4.057.318-6.793,4.465-4.128,6.047-3.111S249.542,400.978,247.784,403.712Z" transform="translate(-240.638 -396.587)" fill="#e0e0e0"/>
            </g>
          </g>
        </g>
      </g>
      <g id="Plant" transform="translate(283.083 289.708)">
        <g id="Group_1727" data-name="Group 1727" transform="translate(0)">
          <g id="Group_1723" data-name="Group 1723">
            <g id="Group_1717" data-name="Group 1717">
              <g id="Group_1545" data-name="Group 1545" transform="translate(30.948)">
                <g id="Group_1544" data-name="Group 1544">
                  <g id="Group_1543" data-name="Group 1543">
                    <g id="Group_1542" data-name="Group 1542">
                      <g id="Group_1541" data-name="Group 1541">
                        <g id="Group_1540" data-name="Group 1540">
                          <path id="Path_1192" data-name="Path 1192" d="M437.844,344.1a2.111,2.111,0,0,0-.141-.339l-.455-.971a24.376,24.376,0,0,1-1.337-3.885,34.276,34.276,0,0,1,.114-15,80.549,80.549,0,0,1,2.783-10.077c1.178-3.576,2.546-7.371,3.663-11.473a44.394,44.394,0,0,0,1.808-13.191c-.169-4.666-1.55-9.324-3.07-13.959s-3.083-9.182-3.553-13.747a20.953,20.953,0,0,1,2.52-12.7c2.011-3.7,4.541-6.873,6.434-10.155a35.264,35.264,0,0,0,3.867-9.762,36.349,36.349,0,0,0,.245-15.125,28.2,28.2,0,0,0-1.578-5.341,2.044,2.044,0,0,0,.093.355l.319,1.024a38.887,38.887,0,0,1,.981,4,36.834,36.834,0,0,1-.393,15.011,35.162,35.162,0,0,1-3.88,9.639c-1.889,3.242-4.43,6.4-6.48,10.146a21.375,21.375,0,0,0-2.6,12.954c.472,4.642,2.052,9.211,3.565,13.849s2.884,9.241,3.056,13.828a44.163,44.163,0,0,1-1.766,13.057c-1.1,4.082-2.451,7.877-3.614,11.464a79.6,79.6,0,0,0-2.737,10.137,33.9,33.9,0,0,0,.039,15.114,22.438,22.438,0,0,0,1.431,3.879l.5.952A2.071,2.071,0,0,0,437.844,344.1Z" transform="translate(-434.869 -208.374)" fill="#263238"/>
                        </g>
                      </g>
                    </g>
                  </g>
                </g>
              </g>
              <g id="Group_1557" data-name="Group 1557" transform="translate(36.116 13.839)">
                <g id="Group_1550" data-name="Group 1550">
                  <g id="Group_1549" data-name="Group 1549">
                    <g id="Group_1548" data-name="Group 1548">
                      <g id="Group_1547" data-name="Group 1547">
                        <g id="Group_1546" data-name="Group 1546">
                          <path id="Path_1193" data-name="Path 1193" d="M446.738,249.069s3.844-12.293-3.052-19.492a.426.426,0,0,0-.73.212C442.587,231.818,442.127,238,446.738,249.069Z" transform="translate(-442.737 -229.442)" fill="#e8505b"/>
                        </g>
                      </g>
                    </g>
                  </g>
                </g>
                <g id="Group_1556" data-name="Group 1556" transform="translate(1.678 4.231)">
                  <g id="Group_1555" data-name="Group 1555">
                    <g id="Group_1554" data-name="Group 1554">
                      <g id="Group_1553" data-name="Group 1553">
                        <g id="Group_1552" data-name="Group 1552">
                          <g id="Group_1551" data-name="Group 1551">
                            <path id="Path_1194" data-name="Path 1194" d="M445.311,235.883a11.33,11.33,0,0,0,.259,2.268c.253,1.563.549,3.4.877,5.423l.861,5.422a12.239,12.239,0,0,0,.407,2.244,9.55,9.55,0,0,0-.069-2.285c-.127-1.405-.375-3.338-.724-5.459s-.717-4.031-1.017-5.407A10.29,10.29,0,0,0,445.311,235.883Z" transform="translate(-445.293 -235.883)" fill="#263238"/>
                          </g>
                        </g>
                      </g>
                    </g>
                  </g>
                </g>
              </g>
              <g id="Group_1569" data-name="Group 1569" transform="translate(23.22 46.636)">
                <g id="Group_1562" data-name="Group 1562">
                  <g id="Group_1561" data-name="Group 1561">
                    <g id="Group_1560" data-name="Group 1560">
                      <g id="Group_1559" data-name="Group 1559">
                        <g id="Group_1558" data-name="Group 1558">
                          <path id="Path_1195" data-name="Path 1195" d="M435.486,295.2s-2.352-12.665-11.813-15.8a.426.426,0,0,0-.547.528C423.749,281.889,426.234,287.57,435.486,295.2Z" transform="translate(-423.105 -279.371)" fill="#e8505b"/>
                        </g>
                      </g>
                    </g>
                  </g>
                </g>
                <g id="Group_1568" data-name="Group 1568" transform="translate(3.142 3.292)">
                  <g id="Group_1567" data-name="Group 1567">
                    <g id="Group_1566" data-name="Group 1566">
                      <g id="Group_1565" data-name="Group 1565">
                        <g id="Group_1564" data-name="Group 1564">
                          <g id="Group_1563" data-name="Group 1563">
                            <path id="Path_1196" data-name="Path 1196" d="M427.891,284.384a11.3,11.3,0,0,0,1.289,1.884l3.311,4.383,3.3,4.39a12.3,12.3,0,0,0,1.409,1.793,9.535,9.535,0,0,0-1.13-1.987c-.769-1.182-1.892-2.775-3.192-4.486s-2.519-3.228-3.428-4.3A10.278,10.278,0,0,0,427.891,284.384Z" transform="translate(-427.887 -284.382)" fill="#263238"/>
                          </g>
                        </g>
                      </g>
                    </g>
                  </g>
                </g>
              </g>
              <g id="Group_1581" data-name="Group 1581" transform="translate(30.766 75.6)">
                <g id="Group_1574" data-name="Group 1574">
                  <g id="Group_1573" data-name="Group 1573">
                    <g id="Group_1572" data-name="Group 1572">
                      <g id="Group_1571" data-name="Group 1571">
                        <g id="Group_1570" data-name="Group 1570">
                          <path id="Path_1197" data-name="Path 1197" d="M441.984,342.1s1.428-12.8-6.715-18.551a.426.426,0,0,0-.677.346C434.618,325.954,435.346,332.112,441.984,342.1Z" transform="translate(-434.592 -323.464)" fill="#e8505b"/>
                        </g>
                      </g>
                    </g>
                  </g>
                </g>
                <g id="Group_1580" data-name="Group 1580" transform="translate(2.185 3.959)">
                  <g id="Group_1579" data-name="Group 1579">
                    <g id="Group_1578" data-name="Group 1578">
                      <g id="Group_1577" data-name="Group 1577">
                        <g id="Group_1576" data-name="Group 1576">
                          <g id="Group_1575" data-name="Group 1575">
                            <path id="Path_1198" data-name="Path 1198" d="M437.927,329.491a11.289,11.289,0,0,0,.686,2.177l1.9,5.155,1.879,5.158a12.328,12.328,0,0,0,.828,2.125,9.541,9.541,0,0,0-.5-2.23c-.393-1.354-1-3.2-1.751-5.22s-1.473-3.82-2.03-5.113A10.283,10.283,0,0,0,437.927,329.491Z" transform="translate(-437.919 -329.49)" fill="#263238"/>
                          </g>
                        </g>
                      </g>
                    </g>
                  </g>
                </g>
              </g>
              <g id="Group_1593" data-name="Group 1593" transform="translate(22.991 107.818)">
                <g id="Group_1586" data-name="Group 1586">
                  <g id="Group_1585" data-name="Group 1585">
                    <g id="Group_1584" data-name="Group 1584">
                      <g id="Group_1583" data-name="Group 1583">
                        <g id="Group_1582" data-name="Group 1582">
                          <path id="Path_1199" data-name="Path 1199" d="M430.795,390.883s.97-12.845-7.374-18.3a.426.426,0,0,0-.664.37C422.856,375.014,423.8,381.142,430.795,390.883Z" transform="translate(-422.756 -372.511)" fill="#e8505b"/>
                        </g>
                      </g>
                    </g>
                  </g>
                </g>
                <g id="Group_1592" data-name="Group 1592" transform="translate(2.311 3.893)">
                  <g id="Group_1591" data-name="Group 1591">
                    <g id="Group_1590" data-name="Group 1590">
                      <g id="Group_1589" data-name="Group 1589">
                        <g id="Group_1588" data-name="Group 1588">
                          <g id="Group_1587" data-name="Group 1587">
                            <path id="Path_1200" data-name="Path 1200" d="M426.282,378.438a11.306,11.306,0,0,0,.765,2.151c.6,1.465,1.3,3.185,2.078,5.084l2.063,5.088a12.306,12.306,0,0,0,.9,2.094,9.565,9.565,0,0,0-.583-2.21c-.441-1.34-1.119-3.166-1.937-5.155s-1.609-3.765-2.212-5.038A10.283,10.283,0,0,0,426.282,378.438Z" transform="translate(-426.274 -378.437)" fill="#263238"/>
                          </g>
                        </g>
                      </g>
                    </g>
                  </g>
                </g>
              </g>
              <g id="Group_1605" data-name="Group 1605" transform="translate(45.642 6.292)">
                <g id="Group_1598" data-name="Group 1598">
                  <g id="Group_1597" data-name="Group 1597">
                    <g id="Group_1596" data-name="Group 1596">
                      <g id="Group_1595" data-name="Group 1595">
                        <g id="Group_1594" data-name="Group 1594">
                          <path id="Path_1201" data-name="Path 1201" d="M457.238,234.326s11.418-5.963,11.642-15.929a.426.426,0,0,0-.665-.368C466.517,219.2,461.815,223.244,457.238,234.326Z" transform="translate(-457.238 -217.953)" fill="#e8505b"/>
                        </g>
                      </g>
                    </g>
                  </g>
                </g>
                <g id="Group_1604" data-name="Group 1604" transform="translate(0.095 3.866)">
                  <g id="Group_1603" data-name="Group 1603">
                    <g id="Group_1602" data-name="Group 1602">
                      <g id="Group_1601" data-name="Group 1601">
                        <g id="Group_1600" data-name="Group 1600">
                          <g id="Group_1599" data-name="Group 1599">
                            <path id="Path_1202" data-name="Path 1202" d="M466.559,223.839a11.33,11.33,0,0,0-1.423,1.785l-3.219,4.451-3.23,4.439a12.31,12.31,0,0,0-1.3,1.873,9.519,9.519,0,0,0,1.569-1.663c.9-1.082,2.1-2.622,3.353-4.368s2.347-3.355,3.108-4.54A10.257,10.257,0,0,0,466.559,223.839Z" transform="translate(-457.383 -223.838)" fill="#263238"/>
                          </g>
                        </g>
                      </g>
                    </g>
                  </g>
                </g>
              </g>
              <g id="Group_1617" data-name="Group 1617" transform="translate(33.382 33.404)">
                <g id="Group_1610" data-name="Group 1610">
                  <g id="Group_1609" data-name="Group 1609">
                    <g id="Group_1608" data-name="Group 1608">
                      <g id="Group_1607" data-name="Group 1607">
                        <g id="Group_1606" data-name="Group 1606">
                          <path id="Path_1203" data-name="Path 1203" d="M438.574,274.89s11.759-5.258,12.587-15.192a.426.426,0,0,0-.642-.408C448.754,260.358,443.815,264.107,438.574,274.89Z" transform="translate(-438.574 -259.228)" fill="#e8505b"/>
                        </g>
                      </g>
                    </g>
                  </g>
                </g>
                <g id="Group_1616" data-name="Group 1616" transform="translate(0.093 3.741)">
                  <g id="Group_1615" data-name="Group 1615">
                    <g id="Group_1614" data-name="Group 1614">
                      <g id="Group_1613" data-name="Group 1613">
                        <g id="Group_1612" data-name="Group 1612">
                          <g id="Group_1611" data-name="Group 1611">
                            <path id="Path_1204" data-name="Path 1204" d="M448.635,264.925a11.285,11.285,0,0,0-1.528,1.7l-3.483,4.247-3.493,4.235a12.338,12.338,0,0,0-1.412,1.791,9.522,9.522,0,0,0,1.666-1.565c.969-1.025,2.253-2.49,3.612-4.156s2.547-3.206,3.378-4.343A10.208,10.208,0,0,0,448.635,264.925Z" transform="translate(-438.715 -264.923)" fill="#263238"/>
                          </g>
                        </g>
                      </g>
                    </g>
                  </g>
                </g>
              </g>
              <g id="Group_1629" data-name="Group 1629" transform="translate(40.132 58.988)">
                <g id="Group_1622" data-name="Group 1622">
                  <g id="Group_1621" data-name="Group 1621">
                    <g id="Group_1620" data-name="Group 1620">
                      <g id="Group_1619" data-name="Group 1619">
                        <g id="Group_1618" data-name="Group 1618">
                          <path id="Path_1205" data-name="Path 1205" d="M448.866,317.7s8.074-10.037,4.287-19.258a.426.426,0,0,0-.757-.07C451.31,300.129,448.621,305.717,448.866,317.7Z" transform="translate(-448.85 -298.175)" fill="#e8505b"/>
                        </g>
                      </g>
                    </g>
                  </g>
                </g>
                <g id="Group_1628" data-name="Group 1628" transform="translate(0.11 4.357)">
                  <g id="Group_1627" data-name="Group 1627">
                    <g id="Group_1626" data-name="Group 1626">
                      <g id="Group_1625" data-name="Group 1625">
                        <g id="Group_1624" data-name="Group 1624">
                          <g id="Group_1623" data-name="Group 1623">
                            <path id="Path_1206" data-name="Path 1206" d="M452.409,304.808a11.34,11.34,0,0,0-.588,2.205l-1.167,5.368c-.441,2-.841,3.816-1.182,5.361a12.389,12.389,0,0,0-.441,2.237,9.479,9.479,0,0,0,.771-2.152c.4-1.354.872-3.243,1.323-5.345s.807-4.014,1.03-5.4A10.2,10.2,0,0,0,452.409,304.808Z" transform="translate(-449.018 -304.808)" fill="#263238"/>
                          </g>
                        </g>
                      </g>
                    </g>
                  </g>
                </g>
              </g>
              <g id="Group_1641" data-name="Group 1641" transform="translate(32.15 97.308)">
                <g id="Group_1634" data-name="Group 1634">
                  <g id="Group_1633" data-name="Group 1633">
                    <g id="Group_1632" data-name="Group 1632">
                      <g id="Group_1631" data-name="Group 1631">
                        <g id="Group_1630" data-name="Group 1630">
                          <path id="Path_1207" data-name="Path 1207" d="M436.7,372.376s11.669-5.455,12.331-15.4a.426.426,0,0,0-.649-.4C446.634,357.675,441.758,361.507,436.7,372.376Z" transform="translate(-436.699 -356.512)" fill="#e8505b"/>
                        </g>
                      </g>
                    </g>
                  </g>
                </g>
                <g id="Group_1640" data-name="Group 1640" transform="translate(0.094 3.777)">
                  <g id="Group_1639" data-name="Group 1639">
                    <g id="Group_1638" data-name="Group 1638">
                      <g id="Group_1637" data-name="Group 1637">
                        <g id="Group_1636" data-name="Group 1636">
                          <g id="Group_1635" data-name="Group 1635">
                            <path id="Path_1208" data-name="Path 1208" d="M446.56,362.263a11.291,11.291,0,0,0-1.5,1.721l-3.411,4.305-3.422,4.293a12.268,12.268,0,0,0-1.381,1.814,9.571,9.571,0,0,0,1.64-1.592c.951-1.042,2.21-2.528,3.541-4.217s2.492-3.248,3.305-4.4A10.286,10.286,0,0,0,446.56,362.263Z" transform="translate(-436.842 -362.261)" fill="#263238"/>
                          </g>
                        </g>
                      </g>
                    </g>
                  </g>
                </g>
              </g>
              <g id="Group_1716" data-name="Group 1716" transform="translate(0 59.6)">
                <g id="Group_1647" data-name="Group 1647" transform="translate(8.893 2.93)">
                  <g id="Group_1646" data-name="Group 1646">
                    <g id="Group_1645" data-name="Group 1645">
                      <g id="Group_1644" data-name="Group 1644">
                        <g id="Group_1643" data-name="Group 1643">
                          <g id="Group_1642" data-name="Group 1642">
                            <path id="Path_1209" data-name="Path 1209" d="M401.309,303.567a.949.949,0,0,0-.015.283c.006.225.012.5.021.824.034.774.08,1.819.138,3.123.15,2.746.36,6.575.611,11.154v.011l0,.016c.833,4.661,3.207,9.827,6.4,14.843,2.339,3.695,4.791,7.054,6.905,10.178a72.046,72.046,0,0,1,5.177,8.558,36.309,36.309,0,0,1,2.423,6.28c.2.77.359,1.37.448,1.78a3.318,3.318,0,0,0,.17.62,3.217,3.217,0,0,0-.075-.639c-.058-.418-.184-1.027-.362-1.808a33.122,33.122,0,0,0-2.3-6.381,68.23,68.23,0,0,0-5.116-8.658c-2.1-3.146-4.538-6.511-6.865-10.187-3.172-4.991-5.534-10.078-6.4-14.665l0,.026c-.322-4.575-.591-8.4-.783-11.143-.106-1.3-.19-2.344-.252-3.116l-.082-.819A.981.981,0,0,0,401.309,303.567Z" transform="translate(-401.294 -303.567)" fill="#263238"/>
                          </g>
                        </g>
                      </g>
                    </g>
                  </g>
                </g>
                <g id="Group_1664" data-name="Group 1664" transform="translate(13.994 12.371)">
                  <g id="Group_1652" data-name="Group 1652">
                    <g id="Group_1651" data-name="Group 1651">
                      <g id="Group_1650" data-name="Group 1650">
                        <g id="Group_1649" data-name="Group 1649">
                          <g id="Group_1648" data-name="Group 1648">
                            <path id="Path_1210" data-name="Path 1210" d="M410.921,337.793S405.98,325.9,412.2,318.105a.426.426,0,0,1,.747.145C413.493,320.238,414.511,326.354,410.921,337.793Z" transform="translate(-409.059 -317.941)" fill="#e8505b"/>
                          </g>
                        </g>
                      </g>
                    </g>
                  </g>
                  <g id="Group_1658" data-name="Group 1658" transform="translate(1.621 4.312)">
                    <g id="Group_1657" data-name="Group 1657">
                      <g id="Group_1656" data-name="Group 1656">
                        <g id="Group_1655" data-name="Group 1655">
                          <g id="Group_1654" data-name="Group 1654">
                            <g id="Group_1653" data-name="Group 1653">
                              <path id="Path_1211" data-name="Path 1211" d="M412.668,324.5a10.211,10.211,0,0,0-.392,2.25c-.175,1.4-.371,3.334-.524,5.477s-.227,4.091-.226,5.5a9.508,9.508,0,0,0,.138,2.282,12.33,12.33,0,0,0,.2-2.271c.106-1.578.229-3.43.367-5.478s.272-3.9.382-5.48A11.308,11.308,0,0,0,412.668,324.5Z" transform="translate(-411.526 -324.505)" fill="#263238"/>
                            </g>
                          </g>
                        </g>
                      </g>
                    </g>
                  </g>
                  <g id="Group_1663" data-name="Group 1663" opacity="0.3">
                    <g id="Group_1662" data-name="Group 1662">
                      <g id="Group_1661" data-name="Group 1661">
                        <g id="Group_1660" data-name="Group 1660">
                          <g id="Group_1659" data-name="Group 1659">
                            <path id="Path_1212" data-name="Path 1212" d="M410.921,337.793S405.98,325.9,412.2,318.105a.426.426,0,0,1,.747.145C413.493,320.238,414.511,326.354,410.921,337.793Z" transform="translate(-409.059 -317.941)"/>
                          </g>
                        </g>
                      </g>
                    </g>
                  </g>
                </g>
                <g id="Group_1681" data-name="Group 1681" transform="translate(30.02 41.231)">
                  <g id="Group_1669" data-name="Group 1669">
                    <g id="Group_1668" data-name="Group 1668">
                      <g id="Group_1667" data-name="Group 1667">
                        <g id="Group_1666" data-name="Group 1666">
                          <g id="Group_1665" data-name="Group 1665">
                            <path id="Path_1213" data-name="Path 1213" d="M434.6,381.533s-3.96-12.257,2.867-19.52a.426.426,0,0,1,.732.2C438.586,364.244,439.1,370.423,434.6,381.533Z" transform="translate(-433.456 -361.875)" fill="#e8505b"/>
                          </g>
                        </g>
                      </g>
                    </g>
                  </g>
                  <g id="Group_1675" data-name="Group 1675" transform="translate(0.999 4.241)">
                    <g id="Group_1674" data-name="Group 1674">
                      <g id="Group_1673" data-name="Group 1673">
                        <g id="Group_1672" data-name="Group 1672">
                          <g id="Group_1671" data-name="Group 1671">
                            <g id="Group_1670" data-name="Group 1670">
                              <path id="Path_1214" data-name="Path 1214" d="M437.277,368.332a10.265,10.265,0,0,0-.573,2.211c-.288,1.379-.64,3.292-.966,5.417s-.558,4.059-.671,5.465a9.5,9.5,0,0,0-.047,2.285,12.351,12.351,0,0,0,.386-2.247c.233-1.565.507-3.4.809-5.43s.588-3.866.826-5.43A11.261,11.261,0,0,0,437.277,368.332Z" transform="translate(-434.977 -368.332)" fill="#263238"/>
                            </g>
                          </g>
                        </g>
                      </g>
                    </g>
                  </g>
                  <g id="Group_1680" data-name="Group 1680" opacity="0.3">
                    <g id="Group_1679" data-name="Group 1679">
                      <g id="Group_1678" data-name="Group 1678">
                        <g id="Group_1677" data-name="Group 1677">
                          <g id="Group_1676" data-name="Group 1676">
                            <path id="Path_1215" data-name="Path 1215" d="M434.6,381.533s-3.96-12.257,2.867-19.52a.426.426,0,0,1,.732.2C438.586,364.244,439.1,370.423,434.6,381.533Z" transform="translate(-433.456 -361.875)"/>
                          </g>
                        </g>
                      </g>
                    </g>
                  </g>
                </g>
                <g id="Group_1698" data-name="Group 1698">
                  <g id="Group_1686" data-name="Group 1686">
                    <g id="Group_1685" data-name="Group 1685">
                      <g id="Group_1684" data-name="Group 1684">
                        <g id="Group_1683" data-name="Group 1683">
                          <g id="Group_1682" data-name="Group 1682">
                            <path id="Path_1216" data-name="Path 1216" d="M397.318,316.794s-10.552-7.387-9.487-17.3a.426.426,0,0,1,.707-.28C390.069,300.6,394.21,305.215,397.318,316.794Z" transform="translate(-387.755 -299.107)" fill="#e8505b"/>
                          </g>
                        </g>
                      </g>
                    </g>
                  </g>
                  <g id="Group_1691" data-name="Group 1691" opacity="0.3">
                    <g id="Group_1690" data-name="Group 1690">
                      <g id="Group_1689" data-name="Group 1689">
                        <g id="Group_1688" data-name="Group 1688">
                          <g id="Group_1687" data-name="Group 1687">
                            <path id="Path_1217" data-name="Path 1217" d="M397.318,316.794s-10.552-7.387-9.487-17.3a.426.426,0,0,1,.707-.28C390.069,300.6,394.21,305.215,397.318,316.794Z" transform="translate(-387.755 -299.107)"/>
                          </g>
                        </g>
                      </g>
                    </g>
                  </g>
                  <g id="Group_1697" data-name="Group 1697" transform="translate(1.977 4.088)">
                    <g id="Group_1696" data-name="Group 1696">
                      <g id="Group_1695" data-name="Group 1695">
                        <g id="Group_1694" data-name="Group 1694">
                          <g id="Group_1693" data-name="Group 1693">
                            <g id="Group_1692" data-name="Group 1692">
                              <path id="Path_1218" data-name="Path 1218" d="M390.772,305.332a10.228,10.228,0,0,0,.877,2.11c.6,1.273,1.475,3.012,2.5,4.9s2,3.574,2.761,4.764a9.523,9.523,0,0,0,1.341,1.852,12.326,12.326,0,0,0-1.048-2.025l-2.629-4.819-2.617-4.829A11.36,11.36,0,0,0,390.772,305.332Z" transform="translate(-390.766 -305.331)" fill="#263238"/>
                            </g>
                          </g>
                        </g>
                      </g>
                    </g>
                  </g>
                </g>
                <g id="Group_1715" data-name="Group 1715" transform="translate(10.744 36.807)">
                  <g id="Group_1703" data-name="Group 1703">
                    <g id="Group_1702" data-name="Group 1702">
                      <g id="Group_1701" data-name="Group 1701">
                        <g id="Group_1700" data-name="Group 1700">
                          <g id="Group_1699" data-name="Group 1699">
                            <path id="Path_1219" data-name="Path 1219" d="M420.275,367.071s-12.727-1.984-16.136-11.351a.426.426,0,0,1,.512-.562C406.635,355.724,412.385,358.044,420.275,367.071Z" transform="translate(-404.112 -355.14)" fill="#e8505b"/>
                          </g>
                        </g>
                      </g>
                    </g>
                  </g>
                  <g id="Group_1708" data-name="Group 1708" opacity="0.3">
                    <g id="Group_1707" data-name="Group 1707">
                      <g id="Group_1706" data-name="Group 1706">
                        <g id="Group_1705" data-name="Group 1705">
                          <g id="Group_1704" data-name="Group 1704">
                            <path id="Path_1220" data-name="Path 1220" d="M420.275,367.071s-12.727-1.984-16.136-11.351a.426.426,0,0,1,.512-.562C406.635,355.724,412.385,358.044,420.275,367.071Z" transform="translate(-404.112 -355.14)"/>
                          </g>
                        </g>
                      </g>
                    </g>
                  </g>
                  <g id="Group_1714" data-name="Group 1714" transform="translate(3.369 3.057)">
                    <g id="Group_1713" data-name="Group 1713">
                      <g id="Group_1712" data-name="Group 1712">
                        <g id="Group_1711" data-name="Group 1711">
                          <g id="Group_1710" data-name="Group 1710">
                            <g id="Group_1709" data-name="Group 1709">
                              <path id="Path_1221" data-name="Path 1221" d="M409.242,359.8a10.306,10.306,0,0,0,1.716,1.508c1.1.878,2.651,2.054,4.4,3.3s3.373,2.327,4.577,3.062a9.5,9.5,0,0,0,2.019,1.071,12.393,12.393,0,0,0-1.833-1.357l-4.484-3.168-4.477-3.183A11.319,11.319,0,0,0,409.242,359.8Z" transform="translate(-409.24 -359.794)" fill="#263238"/>
                            </g>
                          </g>
                        </g>
                      </g>
                    </g>
                  </g>
                </g>
              </g>
            </g>
            <g id="Group_1722" data-name="Group 1722" transform="translate(18.826 131.76)">
              <g id="Group_1721" data-name="Group 1721">
                <g id="Group_1720" data-name="Group 1720">
                  <g id="Group_1719" data-name="Group 1719">
                    <g id="Group_1718" data-name="Group 1718">
                      <path id="Path_1222" data-name="Path 1222" d="M439.555,408.96,435.9,432.9l-14.579-.025-4.911-23.92Z" transform="translate(-416.415 -408.96)" fill="#455a64"/>
                    </g>
                  </g>
                </g>
              </g>
            </g>
          </g>
          <g id="Group_1726" data-name="Group 1726" transform="translate(20.962 135.13)">
            <g id="Group_1725" data-name="Group 1725">
              <g id="Group_1724" data-name="Group 1724">
                <path id="Path_1223" data-name="Path 1223" d="M419.667,419.958c0,.006.037.035.122.089s.209.135.384.219a5.337,5.337,0,0,0,1.63.485,5.987,5.987,0,0,0,2.681-.252,5.614,5.614,0,0,0,2.882-2.093,4.049,4.049,0,0,0,.675-2,2.182,2.182,0,0,0-.989-2.059,2.363,2.363,0,0,0-2.443.2,3.567,3.567,0,0,0-1.4,2.2,9.382,9.382,0,0,0-.181,2.705,8.936,8.936,0,0,0,.591,2.765,6.093,6.093,0,0,0,1.69,2.411,4.719,4.719,0,0,0,2.806,1.172,5.141,5.141,0,0,0,2.918-.847,8.729,8.729,0,0,0,2.177-1.968,4.778,4.778,0,0,0,1.1-2.631,3.048,3.048,0,0,0-1.035-2.536,2.37,2.37,0,0,0-2.583-.158,2.765,2.765,0,0,0-1.491,1.952,3.747,3.747,0,0,0,1.844,3.79,5.148,5.148,0,0,0,3.52.509,8.023,8.023,0,0,0,2.507-.981,13.293,13.293,0,0,0,1.4-.951,2.939,2.939,0,0,0,.45-.382,3.723,3.723,0,0,0-.5.317c-.321.213-.792.533-1.433.88a8.125,8.125,0,0,1-2.471.9,4.944,4.944,0,0,1-3.336-.532,3.456,3.456,0,0,1-1.662-3.483,2.424,2.424,0,0,1,1.325-1.7,2.011,2.011,0,0,1,2.195.133,2.683,2.683,0,0,1,.882,2.227,4.41,4.41,0,0,1-1.03,2.409,8.384,8.384,0,0,1-2.078,1.871,4.761,4.761,0,0,1-2.691.786,4.327,4.327,0,0,1-2.566-1.075,5.724,5.724,0,0,1-1.585-2.254,8.607,8.607,0,0,1-.573-2.644,9.052,9.052,0,0,1,.158-2.593,3.219,3.219,0,0,1,1.234-1.994,2.029,2.029,0,0,1,2.083-.206,1.866,1.866,0,0,1,.845,1.759,3.788,3.788,0,0,1-.6,1.86,5.421,5.421,0,0,1-2.717,2.036,5.961,5.961,0,0,1-2.591.309A6.77,6.77,0,0,1,419.667,419.958Z" transform="translate(-419.667 -414.09)" fill="#263238"/>
              </g>
            </g>
          </g>
        </g>
      </g>
    </g>
  </g>
</svg>
