<svg xmlns="http://www.w3.org/2000/svg" id="prefix__website" width="11" height="11" viewBox="0 0 11 11">
    <defs>
        <style>
            .prefix__cls-1{fill:#707070}
        </style>
    </defs>
    <path id="prefix__Path_817" d="M11 158.533H0v6.409a1.187 1.187 0 0 0 1.185 1.185h8.63A1.187 1.187 0 0 0 11 164.942zm-3.107 3.452a2.051 2.051 0 0 1-2.048 2.048 2.037 2.037 0 0 1-1.2-.391l-.987.987a.322.322 0 0 1-.456-.456l.987-.987a2.048 2.048 0 1 1 3.706-1.2z" class="prefix__cls-1" data-name="Path 817" transform="translate(0 -155.127)"/>
    <path id="prefix__Path_818" d="M208.138 256.674a1.4 1.4 0 1 1 1.4-1.4 1.405 1.405 0 0 1-1.4 1.4z" class="prefix__cls-1" data-name="Path 818" transform="translate(-202.292 -248.413)"/>
    <path id="prefix__Path_819" d="M9.815 0h-8.63A1.187 1.187 0 0 0 0 1.185v1.576h11V1.185A1.187 1.187 0 0 0 9.815 0zM1.931 1.608a.322.322 0 1 1 .095-.228.323.323 0 0 1-.095.228zm1.381 0a.322.322 0 1 1 .095-.228.324.324 0 0 1-.095.228zm1.381 0a.322.322 0 1 1 .094-.228.324.324 0 0 1-.095.228zM9.3 1.7H5.845a.322.322 0 1 1 0-.645H9.3a.322.322 0 0 1 0 .645z" class="prefix__cls-1" data-name="Path 819"/>
</svg>
